%TF.GenerationSoftware,KiCad,Pcbnew,10.0.2*%
%TF.CreationDate,2026-07-05T17:23:39-05:00*%
%TF.ProjectId,Double-DigiPot-with-IR,446f7562-6c65-42d4-9469-6769506f742d,rev?*%
%TF.SameCoordinates,Original*%
%TF.FileFunction,Paste,Top*%
%TF.FilePolarity,Positive*%
%FSLAX46Y46*%
G04 Gerber Fmt 4.6, Leading zero omitted, Abs format (unit mm)*
G04 Created by KiCad (PCBNEW 10.0.2) date 2026-07-05 17:23:39*
%MOMM*%
%LPD*%
G01*
G04 APERTURE LIST*
G04 Aperture macros list*
%AMRoundRect*
0 Rectangle with rounded corners*
0 $1 Rounding radius*
0 $2 $3 $4 $5 $6 $7 $8 $9 X,Y pos of 4 corners*
0 Add a 4 corners polygon primitive as box body*
4,1,4,$2,$3,$4,$5,$6,$7,$8,$9,$2,$3,0*
0 Add four circle primitives for the rounded corners*
1,1,$1+$1,$2,$3*
1,1,$1+$1,$4,$5*
1,1,$1+$1,$6,$7*
1,1,$1+$1,$8,$9*
0 Add four rect primitives between the rounded corners*
20,1,$1+$1,$2,$3,$4,$5,0*
20,1,$1+$1,$4,$5,$6,$7,0*
20,1,$1+$1,$6,$7,$8,$9,0*
20,1,$1+$1,$8,$9,$2,$3,0*%
%AMFreePoly0*
4,1,9,5.362500,-0.866500,1.237500,-0.866500,1.237500,-0.450000,-1.237500,-0.450000,-1.237500,0.450000,1.237500,0.450000,1.237500,0.866500,5.362500,0.866500,5.362500,-0.866500,5.362500,-0.866500,$1*%
G04 Aperture macros list end*
%ADD10RoundRect,0.250000X0.475000X-0.337500X0.475000X0.337500X-0.475000X0.337500X-0.475000X-0.337500X0*%
%ADD11RoundRect,0.250000X-0.450000X0.350000X-0.450000X-0.350000X0.450000X-0.350000X0.450000X0.350000X0*%
%ADD12RoundRect,0.225000X0.225000X-0.925000X0.225000X0.925000X-0.225000X0.925000X-0.225000X-0.925000X0*%
%ADD13FreePoly0,90.000000*%
%ADD14RoundRect,0.250000X-0.475000X0.337500X-0.475000X-0.337500X0.475000X-0.337500X0.475000X0.337500X0*%
%ADD15RoundRect,0.250000X0.337500X0.475000X-0.337500X0.475000X-0.337500X-0.475000X0.337500X-0.475000X0*%
%ADD16RoundRect,0.250000X-0.350000X-0.450000X0.350000X-0.450000X0.350000X0.450000X-0.350000X0.450000X0*%
%ADD17R,0.457200X1.524000*%
%ADD18RoundRect,0.250000X0.450000X-0.350000X0.450000X0.350000X-0.450000X0.350000X-0.450000X-0.350000X0*%
%ADD19RoundRect,0.250000X0.350000X0.450000X-0.350000X0.450000X-0.350000X-0.450000X0.350000X-0.450000X0*%
%ADD20RoundRect,0.150000X0.150000X-0.825000X0.150000X0.825000X-0.150000X0.825000X-0.150000X-0.825000X0*%
G04 APERTURE END LIST*
D10*
%TO.C,C8*%
X193000000Y-80962500D03*
X193000000Y-83037500D03*
%TD*%
%TO.C,C10*%
X190600000Y-80962500D03*
X190600000Y-83037500D03*
%TD*%
D11*
%TO.C,R12*%
X197400000Y-97400000D03*
X197400000Y-99400000D03*
%TD*%
D12*
%TO.C,U6*%
X197000000Y-85950000D03*
D13*
X198500000Y-85862500D03*
D12*
X200000000Y-85950000D03*
%TD*%
D14*
%TO.C,C6*%
X200000000Y-88962500D03*
X200000000Y-91037500D03*
%TD*%
D15*
%TO.C,C4*%
X194437500Y-127200000D03*
X192362500Y-127200000D03*
%TD*%
D10*
%TO.C,C3*%
X177000000Y-101537500D03*
X177000000Y-99462500D03*
%TD*%
D16*
%TO.C,R9*%
X191600000Y-90400000D03*
X193600000Y-90400000D03*
%TD*%
D17*
%TO.C,U3*%
X189525001Y-103543600D03*
X190174999Y-103543600D03*
X190825001Y-103543600D03*
X191474999Y-103543600D03*
X191474999Y-99456400D03*
X190825001Y-99456400D03*
X190174999Y-99456400D03*
X189525001Y-99456400D03*
%TD*%
D18*
%TO.C,R11*%
X200200000Y-101500000D03*
X200200000Y-99500000D03*
%TD*%
D16*
%TO.C,R8*%
X186800000Y-87200000D03*
X188800000Y-87200000D03*
%TD*%
D10*
%TO.C,C1*%
X185800000Y-122637500D03*
X185800000Y-120562500D03*
%TD*%
D14*
%TO.C,C5*%
X197000000Y-89000000D03*
X197000000Y-91075000D03*
%TD*%
D17*
%TO.C,U2*%
X179025001Y-103543600D03*
X179674999Y-103543600D03*
X180325001Y-103543600D03*
X180974999Y-103543600D03*
X180974999Y-99456400D03*
X180325001Y-99456400D03*
X179674999Y-99456400D03*
X179025001Y-99456400D03*
%TD*%
D10*
%TO.C,C7*%
X188000000Y-83037500D03*
X188000000Y-80962500D03*
%TD*%
D18*
%TO.C,R4*%
X194200000Y-104300000D03*
X194200000Y-102300000D03*
%TD*%
D10*
%TO.C,C9*%
X183500000Y-83037500D03*
X183500000Y-80962500D03*
%TD*%
D18*
%TO.C,R6*%
X203000000Y-103600000D03*
X203000000Y-101600000D03*
%TD*%
D10*
%TO.C,C2*%
X187500000Y-101537500D03*
X187500000Y-99462500D03*
%TD*%
D19*
%TO.C,R7*%
X188800000Y-90400000D03*
X186800000Y-90400000D03*
%TD*%
%TO.C,R5*%
X199500000Y-108100000D03*
X197500000Y-108100000D03*
%TD*%
D16*
%TO.C,R1*%
X184800000Y-116200000D03*
X186800000Y-116200000D03*
%TD*%
D18*
%TO.C,R2*%
X182600000Y-124200000D03*
X182600000Y-122200000D03*
%TD*%
D19*
%TO.C,R3*%
X186800000Y-127000000D03*
X184800000Y-127000000D03*
%TD*%
%TO.C,R10*%
X193600000Y-87200000D03*
X191600000Y-87200000D03*
%TD*%
D20*
%TO.C,U1*%
X188190000Y-123475000D03*
X189460000Y-123475000D03*
X190730000Y-123475000D03*
X192000000Y-123475000D03*
X193270000Y-123475000D03*
X194540000Y-123475000D03*
X195810000Y-123475000D03*
X195810000Y-118525000D03*
X194540000Y-118525000D03*
X193270000Y-118525000D03*
X192000000Y-118525000D03*
X190730000Y-118525000D03*
X189460000Y-118525000D03*
X188190000Y-118525000D03*
%TD*%
M02*
