M48
; DRILL file KiCad 10.0.2 date 2026-07-05T17:23:37
; FORMAT={-:-/ absolute / metric / decimal}
; #@! TF.CreationDate,2026-07-05T17:23:37-05:00
; #@! TF.GenerationSoftware,Kicad,Pcbnew,10.0.2
; #@! TF.FileFunction,Plated,1,2,PTH
FMAT,2
METRIC
; #@! TA.AperFunction,Plated,PTH,ViaDrill
T1C0.300
; #@! TA.AperFunction,Plated,PTH,ComponentDrill
T2C0.900
; #@! TA.AperFunction,Plated,PTH,ComponentDrill
T3C0.991
; #@! TA.AperFunction,Plated,PTH,ComponentDrill
T4C1.000
%
G90
G05
T1
X175.4Y-110.8
X175.4Y-111.4
X175.4Y-112.0
X175.4Y-112.6
X175.4Y-113.2
X175.972Y-110.8
X175.972Y-112.0
X175.972Y-113.2
X176.6Y-111.4
X176.6Y-112.6
X177.0Y-102.8
X177.2Y-111.4
X177.2Y-112.0
X177.2Y-112.6
X177.2Y-113.2
X177.8Y-110.8
X177.8Y-112.0
X178.4Y-111.4
X178.4Y-112.0
X178.4Y-112.6
X178.4Y-113.2
X179.0Y-110.8
X179.0Y-111.4
X179.0Y-112.0
X179.0Y-112.6
X179.0Y-113.2
X179.6Y-113.2
X180.2Y-113.2
X180.4Y-97.8
X180.8Y-110.8
X180.8Y-111.4
X180.8Y-112.0
X180.8Y-112.6
X180.8Y-113.2
X181.4Y-113.2
X181.8Y-103.8
X182.0Y-113.2
X182.6Y-111.4
X182.6Y-112.6
X183.2Y-110.8
X183.2Y-112.0
X183.2Y-113.2
X183.4Y-84.8
X183.8Y-111.4
X183.8Y-112.6
X185.544Y-99.456
X185.8Y-119.6
X186.8Y-88.6
X187.2Y-102.8
X188.2Y-117.2
X188.5Y-104.0
X188.8Y-91.9
X190.2Y-96.8
X190.225Y-100.568
X190.3Y-85.8
X191.475Y-96.8
X191.6Y-91.9
X192.4Y-107.0
X192.5Y-104.0
X193.0Y-105.4
X193.6Y-88.6
X194.0Y-116.6
X195.52Y-110.6
X195.8Y-109.4
X196.2Y-97.4
X196.2Y-99.4
X196.4Y-81.0
X197.5Y-122.0
X197.5Y-123.5
X200.413Y-84.187
X200.8Y-81.0
X203.0Y-106.4
X207.5Y-111.0
X208.6Y-86.4
X209.4Y-97.6
T2
X177.79Y-116.84
X179.568Y-118.364
X181.092Y-116.84
X182.616Y-118.364
X189.06Y-130.175
X191.6Y-130.175
X194.14Y-130.175
T3
X201.905Y-112.8
X201.905Y-117.8
X203.905Y-112.8
X203.905Y-117.8
X205.905Y-112.8
X205.905Y-117.8
T4
X181.84Y-77.5
X184.38Y-77.5
X186.92Y-77.5
X189.46Y-77.5
X192.0Y-77.5
X194.54Y-77.5
X197.08Y-77.5
X199.62Y-77.5
X202.16Y-77.5
M30
