%TF.GenerationSoftware,KiCad,Pcbnew,10.0.2*%
%TF.CreationDate,2026-07-05T17:23:40-05:00*%
%TF.ProjectId,Double-DigiPot-with-IR,446f7562-6c65-42d4-9469-6769506f742d,rev?*%
%TF.SameCoordinates,Original*%
%TF.FileFunction,Legend,Bot*%
%TF.FilePolarity,Positive*%
%FSLAX46Y46*%
G04 Gerber Fmt 4.6, Leading zero omitted, Abs format (unit mm)*
G04 Created by KiCad (PCBNEW 10.0.2) date 2026-07-05 17:23:40*
%MOMM*%
%LPD*%
G01*
G04 APERTURE LIST*
%ADD10C,0.100000*%
%ADD11C,0.508000*%
G04 APERTURE END LIST*
D10*
X188124687Y-89432643D02*
X188458020Y-88956452D01*
X188696115Y-89432643D02*
X188696115Y-88432643D01*
X188696115Y-88432643D02*
X188315163Y-88432643D01*
X188315163Y-88432643D02*
X188219925Y-88480262D01*
X188219925Y-88480262D02*
X188172306Y-88527881D01*
X188172306Y-88527881D02*
X188124687Y-88623119D01*
X188124687Y-88623119D02*
X188124687Y-88765976D01*
X188124687Y-88765976D02*
X188172306Y-88861214D01*
X188172306Y-88861214D02*
X188219925Y-88908833D01*
X188219925Y-88908833D02*
X188315163Y-88956452D01*
X188315163Y-88956452D02*
X188696115Y-88956452D01*
X187172306Y-89432643D02*
X187743734Y-89432643D01*
X187458020Y-89432643D02*
X187458020Y-88432643D01*
X187458020Y-88432643D02*
X187553258Y-88575500D01*
X187553258Y-88575500D02*
X187648496Y-88670738D01*
X187648496Y-88670738D02*
X187743734Y-88718357D01*
X186696115Y-89385024D02*
X186696115Y-89432643D01*
X186696115Y-89432643D02*
X186743734Y-89527881D01*
X186743734Y-89527881D02*
X186791353Y-89575500D01*
X186315163Y-88527881D02*
X186267544Y-88480262D01*
X186267544Y-88480262D02*
X186172306Y-88432643D01*
X186172306Y-88432643D02*
X185934211Y-88432643D01*
X185934211Y-88432643D02*
X185838973Y-88480262D01*
X185838973Y-88480262D02*
X185791354Y-88527881D01*
X185791354Y-88527881D02*
X185743735Y-88623119D01*
X185743735Y-88623119D02*
X185743735Y-88718357D01*
X185743735Y-88718357D02*
X185791354Y-88861214D01*
X185791354Y-88861214D02*
X186362782Y-89432643D01*
X186362782Y-89432643D02*
X185743735Y-89432643D01*
X185267544Y-89385024D02*
X185267544Y-89432643D01*
X185267544Y-89432643D02*
X185315163Y-89527881D01*
X185315163Y-89527881D02*
X185362782Y-89575500D01*
X184934211Y-88432643D02*
X184315164Y-88432643D01*
X184315164Y-88432643D02*
X184648497Y-88813595D01*
X184648497Y-88813595D02*
X184505640Y-88813595D01*
X184505640Y-88813595D02*
X184410402Y-88861214D01*
X184410402Y-88861214D02*
X184362783Y-88908833D01*
X184362783Y-88908833D02*
X184315164Y-89004071D01*
X184315164Y-89004071D02*
X184315164Y-89242166D01*
X184315164Y-89242166D02*
X184362783Y-89337404D01*
X184362783Y-89337404D02*
X184410402Y-89385024D01*
X184410402Y-89385024D02*
X184505640Y-89432643D01*
X184505640Y-89432643D02*
X184791354Y-89432643D01*
X184791354Y-89432643D02*
X184886592Y-89385024D01*
X184886592Y-89385024D02*
X184934211Y-89337404D01*
X183124687Y-89051690D02*
X182362783Y-89051690D01*
X181886592Y-88765976D02*
X181124688Y-89051690D01*
X181124688Y-89051690D02*
X181886592Y-89337404D01*
X179981830Y-88432643D02*
X179362783Y-88432643D01*
X179362783Y-88432643D02*
X179696116Y-88813595D01*
X179696116Y-88813595D02*
X179553259Y-88813595D01*
X179553259Y-88813595D02*
X179458021Y-88861214D01*
X179458021Y-88861214D02*
X179410402Y-88908833D01*
X179410402Y-88908833D02*
X179362783Y-89004071D01*
X179362783Y-89004071D02*
X179362783Y-89242166D01*
X179362783Y-89242166D02*
X179410402Y-89337404D01*
X179410402Y-89337404D02*
X179458021Y-89385024D01*
X179458021Y-89385024D02*
X179553259Y-89432643D01*
X179553259Y-89432643D02*
X179838973Y-89432643D01*
X179838973Y-89432643D02*
X179934211Y-89385024D01*
X179934211Y-89385024D02*
X179981830Y-89337404D01*
X179029449Y-88432643D02*
X178410402Y-88432643D01*
X178410402Y-88432643D02*
X178743735Y-88813595D01*
X178743735Y-88813595D02*
X178600878Y-88813595D01*
X178600878Y-88813595D02*
X178505640Y-88861214D01*
X178505640Y-88861214D02*
X178458021Y-88908833D01*
X178458021Y-88908833D02*
X178410402Y-89004071D01*
X178410402Y-89004071D02*
X178410402Y-89242166D01*
X178410402Y-89242166D02*
X178458021Y-89337404D01*
X178458021Y-89337404D02*
X178505640Y-89385024D01*
X178505640Y-89385024D02*
X178600878Y-89432643D01*
X178600878Y-89432643D02*
X178886592Y-89432643D01*
X178886592Y-89432643D02*
X178981830Y-89385024D01*
X178981830Y-89385024D02*
X179029449Y-89337404D01*
X177791354Y-88432643D02*
X177696116Y-88432643D01*
X177696116Y-88432643D02*
X177600878Y-88480262D01*
X177600878Y-88480262D02*
X177553259Y-88527881D01*
X177553259Y-88527881D02*
X177505640Y-88623119D01*
X177505640Y-88623119D02*
X177458021Y-88813595D01*
X177458021Y-88813595D02*
X177458021Y-89051690D01*
X177458021Y-89051690D02*
X177505640Y-89242166D01*
X177505640Y-89242166D02*
X177553259Y-89337404D01*
X177553259Y-89337404D02*
X177600878Y-89385024D01*
X177600878Y-89385024D02*
X177696116Y-89432643D01*
X177696116Y-89432643D02*
X177791354Y-89432643D01*
X177791354Y-89432643D02*
X177886592Y-89385024D01*
X177886592Y-89385024D02*
X177934211Y-89337404D01*
X177934211Y-89337404D02*
X177981830Y-89242166D01*
X177981830Y-89242166D02*
X178029449Y-89051690D01*
X178029449Y-89051690D02*
X178029449Y-88813595D01*
X178029449Y-88813595D02*
X177981830Y-88623119D01*
X177981830Y-88623119D02*
X177934211Y-88527881D01*
X177934211Y-88527881D02*
X177886592Y-88480262D01*
X177886592Y-88480262D02*
X177791354Y-88432643D01*
X188124687Y-91042587D02*
X188458020Y-90566396D01*
X188696115Y-91042587D02*
X188696115Y-90042587D01*
X188696115Y-90042587D02*
X188315163Y-90042587D01*
X188315163Y-90042587D02*
X188219925Y-90090206D01*
X188219925Y-90090206D02*
X188172306Y-90137825D01*
X188172306Y-90137825D02*
X188124687Y-90233063D01*
X188124687Y-90233063D02*
X188124687Y-90375920D01*
X188124687Y-90375920D02*
X188172306Y-90471158D01*
X188172306Y-90471158D02*
X188219925Y-90518777D01*
X188219925Y-90518777D02*
X188315163Y-90566396D01*
X188315163Y-90566396D02*
X188696115Y-90566396D01*
X187267544Y-90375920D02*
X187267544Y-91042587D01*
X187505639Y-89994968D02*
X187743734Y-90709253D01*
X187743734Y-90709253D02*
X187124687Y-90709253D01*
X186696115Y-90994968D02*
X186696115Y-91042587D01*
X186696115Y-91042587D02*
X186743734Y-91137825D01*
X186743734Y-91137825D02*
X186791353Y-91185444D01*
X185791354Y-90042587D02*
X186267544Y-90042587D01*
X186267544Y-90042587D02*
X186315163Y-90518777D01*
X186315163Y-90518777D02*
X186267544Y-90471158D01*
X186267544Y-90471158D02*
X186172306Y-90423539D01*
X186172306Y-90423539D02*
X185934211Y-90423539D01*
X185934211Y-90423539D02*
X185838973Y-90471158D01*
X185838973Y-90471158D02*
X185791354Y-90518777D01*
X185791354Y-90518777D02*
X185743735Y-90614015D01*
X185743735Y-90614015D02*
X185743735Y-90852110D01*
X185743735Y-90852110D02*
X185791354Y-90947348D01*
X185791354Y-90947348D02*
X185838973Y-90994968D01*
X185838973Y-90994968D02*
X185934211Y-91042587D01*
X185934211Y-91042587D02*
X186172306Y-91042587D01*
X186172306Y-91042587D02*
X186267544Y-90994968D01*
X186267544Y-90994968D02*
X186315163Y-90947348D01*
X185267544Y-90994968D02*
X185267544Y-91042587D01*
X185267544Y-91042587D02*
X185315163Y-91137825D01*
X185315163Y-91137825D02*
X185362782Y-91185444D01*
X184410402Y-90042587D02*
X184600878Y-90042587D01*
X184600878Y-90042587D02*
X184696116Y-90090206D01*
X184696116Y-90090206D02*
X184743735Y-90137825D01*
X184743735Y-90137825D02*
X184838973Y-90280682D01*
X184838973Y-90280682D02*
X184886592Y-90471158D01*
X184886592Y-90471158D02*
X184886592Y-90852110D01*
X184886592Y-90852110D02*
X184838973Y-90947348D01*
X184838973Y-90947348D02*
X184791354Y-90994968D01*
X184791354Y-90994968D02*
X184696116Y-91042587D01*
X184696116Y-91042587D02*
X184505640Y-91042587D01*
X184505640Y-91042587D02*
X184410402Y-90994968D01*
X184410402Y-90994968D02*
X184362783Y-90947348D01*
X184362783Y-90947348D02*
X184315164Y-90852110D01*
X184315164Y-90852110D02*
X184315164Y-90614015D01*
X184315164Y-90614015D02*
X184362783Y-90518777D01*
X184362783Y-90518777D02*
X184410402Y-90471158D01*
X184410402Y-90471158D02*
X184505640Y-90423539D01*
X184505640Y-90423539D02*
X184696116Y-90423539D01*
X184696116Y-90423539D02*
X184791354Y-90471158D01*
X184791354Y-90471158D02*
X184838973Y-90518777D01*
X184838973Y-90518777D02*
X184886592Y-90614015D01*
X183124687Y-90661634D02*
X182362783Y-90661634D01*
X181886592Y-90375920D02*
X181124688Y-90661634D01*
X181124688Y-90661634D02*
X181886592Y-90947348D01*
X179458021Y-90375920D02*
X179458021Y-91042587D01*
X179696116Y-89994968D02*
X179934211Y-90709253D01*
X179934211Y-90709253D02*
X179315164Y-90709253D01*
X178934211Y-90947348D02*
X178886592Y-90994968D01*
X178886592Y-90994968D02*
X178934211Y-91042587D01*
X178934211Y-91042587D02*
X178981830Y-90994968D01*
X178981830Y-90994968D02*
X178934211Y-90947348D01*
X178934211Y-90947348D02*
X178934211Y-91042587D01*
X178553259Y-90042587D02*
X177886593Y-90042587D01*
X177886593Y-90042587D02*
X178315164Y-91042587D01*
X177505640Y-91042587D02*
X177505640Y-90042587D01*
X177410402Y-90661634D02*
X177124688Y-91042587D01*
X177124688Y-90375920D02*
X177505640Y-90756872D01*
X188124687Y-92652531D02*
X188458020Y-92176340D01*
X188696115Y-92652531D02*
X188696115Y-91652531D01*
X188696115Y-91652531D02*
X188315163Y-91652531D01*
X188315163Y-91652531D02*
X188219925Y-91700150D01*
X188219925Y-91700150D02*
X188172306Y-91747769D01*
X188172306Y-91747769D02*
X188124687Y-91843007D01*
X188124687Y-91843007D02*
X188124687Y-91985864D01*
X188124687Y-91985864D02*
X188172306Y-92081102D01*
X188172306Y-92081102D02*
X188219925Y-92128721D01*
X188219925Y-92128721D02*
X188315163Y-92176340D01*
X188315163Y-92176340D02*
X188696115Y-92176340D01*
X187791353Y-91652531D02*
X187124687Y-91652531D01*
X187124687Y-91652531D02*
X187553258Y-92652531D01*
X186743734Y-92271578D02*
X185981830Y-92271578D01*
X184981830Y-92652531D02*
X185553258Y-92652531D01*
X185267544Y-92652531D02*
X185267544Y-91652531D01*
X185267544Y-91652531D02*
X185362782Y-91795388D01*
X185362782Y-91795388D02*
X185458020Y-91890626D01*
X185458020Y-91890626D02*
X185553258Y-91938245D01*
X184600877Y-91747769D02*
X184553258Y-91700150D01*
X184553258Y-91700150D02*
X184458020Y-91652531D01*
X184458020Y-91652531D02*
X184219925Y-91652531D01*
X184219925Y-91652531D02*
X184124687Y-91700150D01*
X184124687Y-91700150D02*
X184077068Y-91747769D01*
X184077068Y-91747769D02*
X184029449Y-91843007D01*
X184029449Y-91843007D02*
X184029449Y-91938245D01*
X184029449Y-91938245D02*
X184077068Y-92081102D01*
X184077068Y-92081102D02*
X184648496Y-92652531D01*
X184648496Y-92652531D02*
X184029449Y-92652531D01*
X182838972Y-92271578D02*
X182077068Y-92271578D01*
X181600877Y-91985864D02*
X180838973Y-92271578D01*
X180838973Y-92271578D02*
X181600877Y-92557292D01*
X179077068Y-92652531D02*
X179648496Y-92652531D01*
X179362782Y-92652531D02*
X179362782Y-91652531D01*
X179362782Y-91652531D02*
X179458020Y-91795388D01*
X179458020Y-91795388D02*
X179553258Y-91890626D01*
X179553258Y-91890626D02*
X179648496Y-91938245D01*
X178458020Y-91652531D02*
X178362782Y-91652531D01*
X178362782Y-91652531D02*
X178267544Y-91700150D01*
X178267544Y-91700150D02*
X178219925Y-91747769D01*
X178219925Y-91747769D02*
X178172306Y-91843007D01*
X178172306Y-91843007D02*
X178124687Y-92033483D01*
X178124687Y-92033483D02*
X178124687Y-92271578D01*
X178124687Y-92271578D02*
X178172306Y-92462054D01*
X178172306Y-92462054D02*
X178219925Y-92557292D01*
X178219925Y-92557292D02*
X178267544Y-92604912D01*
X178267544Y-92604912D02*
X178362782Y-92652531D01*
X178362782Y-92652531D02*
X178458020Y-92652531D01*
X178458020Y-92652531D02*
X178553258Y-92604912D01*
X178553258Y-92604912D02*
X178600877Y-92557292D01*
X178600877Y-92557292D02*
X178648496Y-92462054D01*
X178648496Y-92462054D02*
X178696115Y-92271578D01*
X178696115Y-92271578D02*
X178696115Y-92033483D01*
X178696115Y-92033483D02*
X178648496Y-91843007D01*
X178648496Y-91843007D02*
X178600877Y-91747769D01*
X178600877Y-91747769D02*
X178553258Y-91700150D01*
X178553258Y-91700150D02*
X178458020Y-91652531D01*
X177696115Y-92652531D02*
X177696115Y-91652531D01*
X177600877Y-92271578D02*
X177315163Y-92652531D01*
X177315163Y-91985864D02*
X177696115Y-92366816D01*
X188124687Y-94167236D02*
X188172306Y-94214856D01*
X188172306Y-94214856D02*
X188315163Y-94262475D01*
X188315163Y-94262475D02*
X188410401Y-94262475D01*
X188410401Y-94262475D02*
X188553258Y-94214856D01*
X188553258Y-94214856D02*
X188648496Y-94119617D01*
X188648496Y-94119617D02*
X188696115Y-94024379D01*
X188696115Y-94024379D02*
X188743734Y-93833903D01*
X188743734Y-93833903D02*
X188743734Y-93691046D01*
X188743734Y-93691046D02*
X188696115Y-93500570D01*
X188696115Y-93500570D02*
X188648496Y-93405332D01*
X188648496Y-93405332D02*
X188553258Y-93310094D01*
X188553258Y-93310094D02*
X188410401Y-93262475D01*
X188410401Y-93262475D02*
X188315163Y-93262475D01*
X188315163Y-93262475D02*
X188172306Y-93310094D01*
X188172306Y-93310094D02*
X188124687Y-93357713D01*
X187172306Y-94262475D02*
X187743734Y-94262475D01*
X187458020Y-94262475D02*
X187458020Y-93262475D01*
X187458020Y-93262475D02*
X187553258Y-93405332D01*
X187553258Y-93405332D02*
X187648496Y-93500570D01*
X187648496Y-93500570D02*
X187743734Y-93548189D01*
X186696115Y-94214856D02*
X186696115Y-94262475D01*
X186696115Y-94262475D02*
X186743734Y-94357713D01*
X186743734Y-94357713D02*
X186791353Y-94405332D01*
X186315163Y-93357713D02*
X186267544Y-93310094D01*
X186267544Y-93310094D02*
X186172306Y-93262475D01*
X186172306Y-93262475D02*
X185934211Y-93262475D01*
X185934211Y-93262475D02*
X185838973Y-93310094D01*
X185838973Y-93310094D02*
X185791354Y-93357713D01*
X185791354Y-93357713D02*
X185743735Y-93452951D01*
X185743735Y-93452951D02*
X185743735Y-93548189D01*
X185743735Y-93548189D02*
X185791354Y-93691046D01*
X185791354Y-93691046D02*
X186362782Y-94262475D01*
X186362782Y-94262475D02*
X185743735Y-94262475D01*
X185267544Y-94214856D02*
X185267544Y-94262475D01*
X185267544Y-94262475D02*
X185315163Y-94357713D01*
X185315163Y-94357713D02*
X185362782Y-94405332D01*
X184934211Y-93262475D02*
X184315164Y-93262475D01*
X184315164Y-93262475D02*
X184648497Y-93643427D01*
X184648497Y-93643427D02*
X184505640Y-93643427D01*
X184505640Y-93643427D02*
X184410402Y-93691046D01*
X184410402Y-93691046D02*
X184362783Y-93738665D01*
X184362783Y-93738665D02*
X184315164Y-93833903D01*
X184315164Y-93833903D02*
X184315164Y-94071998D01*
X184315164Y-94071998D02*
X184362783Y-94167236D01*
X184362783Y-94167236D02*
X184410402Y-94214856D01*
X184410402Y-94214856D02*
X184505640Y-94262475D01*
X184505640Y-94262475D02*
X184791354Y-94262475D01*
X184791354Y-94262475D02*
X184886592Y-94214856D01*
X184886592Y-94214856D02*
X184934211Y-94167236D01*
X183838973Y-94214856D02*
X183838973Y-94262475D01*
X183838973Y-94262475D02*
X183886592Y-94357713D01*
X183886592Y-94357713D02*
X183934211Y-94405332D01*
X182981831Y-93595808D02*
X182981831Y-94262475D01*
X183219926Y-93214856D02*
X183458021Y-93929141D01*
X183458021Y-93929141D02*
X182838974Y-93929141D01*
X181696116Y-93881522D02*
X180934212Y-93881522D01*
X180458021Y-93595808D02*
X179696117Y-93881522D01*
X179696117Y-93881522D02*
X180458021Y-94167236D01*
X177934212Y-94262475D02*
X178505640Y-94262475D01*
X178219926Y-94262475D02*
X178219926Y-93262475D01*
X178219926Y-93262475D02*
X178315164Y-93405332D01*
X178315164Y-93405332D02*
X178410402Y-93500570D01*
X178410402Y-93500570D02*
X178505640Y-93548189D01*
X177315164Y-93262475D02*
X177219926Y-93262475D01*
X177219926Y-93262475D02*
X177124688Y-93310094D01*
X177124688Y-93310094D02*
X177077069Y-93357713D01*
X177077069Y-93357713D02*
X177029450Y-93452951D01*
X177029450Y-93452951D02*
X176981831Y-93643427D01*
X176981831Y-93643427D02*
X176981831Y-93881522D01*
X176981831Y-93881522D02*
X177029450Y-94071998D01*
X177029450Y-94071998D02*
X177077069Y-94167236D01*
X177077069Y-94167236D02*
X177124688Y-94214856D01*
X177124688Y-94214856D02*
X177219926Y-94262475D01*
X177219926Y-94262475D02*
X177315164Y-94262475D01*
X177315164Y-94262475D02*
X177410402Y-94214856D01*
X177410402Y-94214856D02*
X177458021Y-94167236D01*
X177458021Y-94167236D02*
X177505640Y-94071998D01*
X177505640Y-94071998D02*
X177553259Y-93881522D01*
X177553259Y-93881522D02*
X177553259Y-93643427D01*
X177553259Y-93643427D02*
X177505640Y-93452951D01*
X177505640Y-93452951D02*
X177458021Y-93357713D01*
X177458021Y-93357713D02*
X177410402Y-93310094D01*
X177410402Y-93310094D02*
X177315164Y-93262475D01*
X176362783Y-93262475D02*
X176267545Y-93262475D01*
X176267545Y-93262475D02*
X176172307Y-93310094D01*
X176172307Y-93310094D02*
X176124688Y-93357713D01*
X176124688Y-93357713D02*
X176077069Y-93452951D01*
X176077069Y-93452951D02*
X176029450Y-93643427D01*
X176029450Y-93643427D02*
X176029450Y-93881522D01*
X176029450Y-93881522D02*
X176077069Y-94071998D01*
X176077069Y-94071998D02*
X176124688Y-94167236D01*
X176124688Y-94167236D02*
X176172307Y-94214856D01*
X176172307Y-94214856D02*
X176267545Y-94262475D01*
X176267545Y-94262475D02*
X176362783Y-94262475D01*
X176362783Y-94262475D02*
X176458021Y-94214856D01*
X176458021Y-94214856D02*
X176505640Y-94167236D01*
X176505640Y-94167236D02*
X176553259Y-94071998D01*
X176553259Y-94071998D02*
X176600878Y-93881522D01*
X176600878Y-93881522D02*
X176600878Y-93643427D01*
X176600878Y-93643427D02*
X176553259Y-93452951D01*
X176553259Y-93452951D02*
X176505640Y-93357713D01*
X176505640Y-93357713D02*
X176458021Y-93310094D01*
X176458021Y-93310094D02*
X176362783Y-93262475D01*
X175600878Y-93595808D02*
X175600878Y-94262475D01*
X175600878Y-93691046D02*
X175553259Y-93643427D01*
X175553259Y-93643427D02*
X175458021Y-93595808D01*
X175458021Y-93595808D02*
X175315164Y-93595808D01*
X175315164Y-93595808D02*
X175219926Y-93643427D01*
X175219926Y-93643427D02*
X175172307Y-93738665D01*
X175172307Y-93738665D02*
X175172307Y-94262475D01*
X188124687Y-95777180D02*
X188172306Y-95824800D01*
X188172306Y-95824800D02*
X188315163Y-95872419D01*
X188315163Y-95872419D02*
X188410401Y-95872419D01*
X188410401Y-95872419D02*
X188553258Y-95824800D01*
X188553258Y-95824800D02*
X188648496Y-95729561D01*
X188648496Y-95729561D02*
X188696115Y-95634323D01*
X188696115Y-95634323D02*
X188743734Y-95443847D01*
X188743734Y-95443847D02*
X188743734Y-95300990D01*
X188743734Y-95300990D02*
X188696115Y-95110514D01*
X188696115Y-95110514D02*
X188648496Y-95015276D01*
X188648496Y-95015276D02*
X188553258Y-94920038D01*
X188553258Y-94920038D02*
X188410401Y-94872419D01*
X188410401Y-94872419D02*
X188315163Y-94872419D01*
X188315163Y-94872419D02*
X188172306Y-94920038D01*
X188172306Y-94920038D02*
X188124687Y-94967657D01*
X187219925Y-94872419D02*
X187696115Y-94872419D01*
X187696115Y-94872419D02*
X187743734Y-95348609D01*
X187743734Y-95348609D02*
X187696115Y-95300990D01*
X187696115Y-95300990D02*
X187600877Y-95253371D01*
X187600877Y-95253371D02*
X187362782Y-95253371D01*
X187362782Y-95253371D02*
X187267544Y-95300990D01*
X187267544Y-95300990D02*
X187219925Y-95348609D01*
X187219925Y-95348609D02*
X187172306Y-95443847D01*
X187172306Y-95443847D02*
X187172306Y-95681942D01*
X187172306Y-95681942D02*
X187219925Y-95777180D01*
X187219925Y-95777180D02*
X187267544Y-95824800D01*
X187267544Y-95824800D02*
X187362782Y-95872419D01*
X187362782Y-95872419D02*
X187600877Y-95872419D01*
X187600877Y-95872419D02*
X187696115Y-95824800D01*
X187696115Y-95824800D02*
X187743734Y-95777180D01*
X186743734Y-95491466D02*
X185981830Y-95491466D01*
X184981830Y-95872419D02*
X185553258Y-95872419D01*
X185267544Y-95872419D02*
X185267544Y-94872419D01*
X185267544Y-94872419D02*
X185362782Y-95015276D01*
X185362782Y-95015276D02*
X185458020Y-95110514D01*
X185458020Y-95110514D02*
X185553258Y-95158133D01*
X184362782Y-94872419D02*
X184267544Y-94872419D01*
X184267544Y-94872419D02*
X184172306Y-94920038D01*
X184172306Y-94920038D02*
X184124687Y-94967657D01*
X184124687Y-94967657D02*
X184077068Y-95062895D01*
X184077068Y-95062895D02*
X184029449Y-95253371D01*
X184029449Y-95253371D02*
X184029449Y-95491466D01*
X184029449Y-95491466D02*
X184077068Y-95681942D01*
X184077068Y-95681942D02*
X184124687Y-95777180D01*
X184124687Y-95777180D02*
X184172306Y-95824800D01*
X184172306Y-95824800D02*
X184267544Y-95872419D01*
X184267544Y-95872419D02*
X184362782Y-95872419D01*
X184362782Y-95872419D02*
X184458020Y-95824800D01*
X184458020Y-95824800D02*
X184505639Y-95777180D01*
X184505639Y-95777180D02*
X184553258Y-95681942D01*
X184553258Y-95681942D02*
X184600877Y-95491466D01*
X184600877Y-95491466D02*
X184600877Y-95253371D01*
X184600877Y-95253371D02*
X184553258Y-95062895D01*
X184553258Y-95062895D02*
X184505639Y-94967657D01*
X184505639Y-94967657D02*
X184458020Y-94920038D01*
X184458020Y-94920038D02*
X184362782Y-94872419D01*
X182838972Y-95491466D02*
X182077068Y-95491466D01*
X181600877Y-95205752D02*
X180838973Y-95491466D01*
X180838973Y-95491466D02*
X181600877Y-95777180D01*
X179077068Y-95872419D02*
X179648496Y-95872419D01*
X179362782Y-95872419D02*
X179362782Y-94872419D01*
X179362782Y-94872419D02*
X179458020Y-95015276D01*
X179458020Y-95015276D02*
X179553258Y-95110514D01*
X179553258Y-95110514D02*
X179648496Y-95158133D01*
X178458020Y-94872419D02*
X178362782Y-94872419D01*
X178362782Y-94872419D02*
X178267544Y-94920038D01*
X178267544Y-94920038D02*
X178219925Y-94967657D01*
X178219925Y-94967657D02*
X178172306Y-95062895D01*
X178172306Y-95062895D02*
X178124687Y-95253371D01*
X178124687Y-95253371D02*
X178124687Y-95491466D01*
X178124687Y-95491466D02*
X178172306Y-95681942D01*
X178172306Y-95681942D02*
X178219925Y-95777180D01*
X178219925Y-95777180D02*
X178267544Y-95824800D01*
X178267544Y-95824800D02*
X178362782Y-95872419D01*
X178362782Y-95872419D02*
X178458020Y-95872419D01*
X178458020Y-95872419D02*
X178553258Y-95824800D01*
X178553258Y-95824800D02*
X178600877Y-95777180D01*
X178600877Y-95777180D02*
X178648496Y-95681942D01*
X178648496Y-95681942D02*
X178696115Y-95491466D01*
X178696115Y-95491466D02*
X178696115Y-95253371D01*
X178696115Y-95253371D02*
X178648496Y-95062895D01*
X178648496Y-95062895D02*
X178600877Y-94967657D01*
X178600877Y-94967657D02*
X178553258Y-94920038D01*
X178553258Y-94920038D02*
X178458020Y-94872419D01*
X177267544Y-95205752D02*
X177267544Y-95872419D01*
X177696115Y-95205752D02*
X177696115Y-95729561D01*
X177696115Y-95729561D02*
X177648496Y-95824800D01*
X177648496Y-95824800D02*
X177553258Y-95872419D01*
X177553258Y-95872419D02*
X177410401Y-95872419D01*
X177410401Y-95872419D02*
X177315163Y-95824800D01*
X177315163Y-95824800D02*
X177267544Y-95777180D01*
X201696115Y-89163035D02*
X201696115Y-88163035D01*
X201696115Y-88163035D02*
X201315163Y-88163035D01*
X201315163Y-88163035D02*
X201219925Y-88210654D01*
X201219925Y-88210654D02*
X201172306Y-88258273D01*
X201172306Y-88258273D02*
X201124687Y-88353511D01*
X201124687Y-88353511D02*
X201124687Y-88496368D01*
X201124687Y-88496368D02*
X201172306Y-88591606D01*
X201172306Y-88591606D02*
X201219925Y-88639225D01*
X201219925Y-88639225D02*
X201315163Y-88686844D01*
X201315163Y-88686844D02*
X201696115Y-88686844D01*
X200743734Y-88877320D02*
X200267544Y-88877320D01*
X200838972Y-89163035D02*
X200505639Y-88163035D01*
X200505639Y-88163035D02*
X200172306Y-89163035D01*
X199648496Y-88163035D02*
X199553258Y-88163035D01*
X199553258Y-88163035D02*
X199458020Y-88210654D01*
X199458020Y-88210654D02*
X199410401Y-88258273D01*
X199410401Y-88258273D02*
X199362782Y-88353511D01*
X199362782Y-88353511D02*
X199315163Y-88543987D01*
X199315163Y-88543987D02*
X199315163Y-88782082D01*
X199315163Y-88782082D02*
X199362782Y-88972558D01*
X199362782Y-88972558D02*
X199410401Y-89067796D01*
X199410401Y-89067796D02*
X199458020Y-89115416D01*
X199458020Y-89115416D02*
X199553258Y-89163035D01*
X199553258Y-89163035D02*
X199648496Y-89163035D01*
X199648496Y-89163035D02*
X199743734Y-89115416D01*
X199743734Y-89115416D02*
X199791353Y-89067796D01*
X199791353Y-89067796D02*
X199838972Y-88972558D01*
X199838972Y-88972558D02*
X199886591Y-88782082D01*
X199886591Y-88782082D02*
X199886591Y-88543987D01*
X199886591Y-88543987D02*
X199838972Y-88353511D01*
X199838972Y-88353511D02*
X199791353Y-88258273D01*
X199791353Y-88258273D02*
X199743734Y-88210654D01*
X199743734Y-88210654D02*
X199648496Y-88163035D01*
X198124686Y-88782082D02*
X197362782Y-88782082D01*
X196886591Y-88496368D02*
X196124687Y-88782082D01*
X196124687Y-88782082D02*
X196886591Y-89067796D01*
X194886591Y-88496368D02*
X194886591Y-89496368D01*
X194886591Y-88543987D02*
X194791353Y-88496368D01*
X194791353Y-88496368D02*
X194600877Y-88496368D01*
X194600877Y-88496368D02*
X194505639Y-88543987D01*
X194505639Y-88543987D02*
X194458020Y-88591606D01*
X194458020Y-88591606D02*
X194410401Y-88686844D01*
X194410401Y-88686844D02*
X194410401Y-88972558D01*
X194410401Y-88972558D02*
X194458020Y-89067796D01*
X194458020Y-89067796D02*
X194505639Y-89115416D01*
X194505639Y-89115416D02*
X194600877Y-89163035D01*
X194600877Y-89163035D02*
X194791353Y-89163035D01*
X194791353Y-89163035D02*
X194886591Y-89115416D01*
X193553258Y-88496368D02*
X193553258Y-89305892D01*
X193553258Y-89305892D02*
X193600877Y-89401130D01*
X193600877Y-89401130D02*
X193648496Y-89448749D01*
X193648496Y-89448749D02*
X193743734Y-89496368D01*
X193743734Y-89496368D02*
X193886591Y-89496368D01*
X193886591Y-89496368D02*
X193981829Y-89448749D01*
X193553258Y-89115416D02*
X193648496Y-89163035D01*
X193648496Y-89163035D02*
X193838972Y-89163035D01*
X193838972Y-89163035D02*
X193934210Y-89115416D01*
X193934210Y-89115416D02*
X193981829Y-89067796D01*
X193981829Y-89067796D02*
X194029448Y-88972558D01*
X194029448Y-88972558D02*
X194029448Y-88686844D01*
X194029448Y-88686844D02*
X193981829Y-88591606D01*
X193981829Y-88591606D02*
X193934210Y-88543987D01*
X193934210Y-88543987D02*
X193838972Y-88496368D01*
X193838972Y-88496368D02*
X193648496Y-88496368D01*
X193648496Y-88496368D02*
X193553258Y-88543987D01*
X193077067Y-89163035D02*
X193077067Y-88496368D01*
X193077067Y-88591606D02*
X193029448Y-88543987D01*
X193029448Y-88543987D02*
X192934210Y-88496368D01*
X192934210Y-88496368D02*
X192791353Y-88496368D01*
X192791353Y-88496368D02*
X192696115Y-88543987D01*
X192696115Y-88543987D02*
X192648496Y-88639225D01*
X192648496Y-88639225D02*
X192648496Y-89163035D01*
X192648496Y-88639225D02*
X192600877Y-88543987D01*
X192600877Y-88543987D02*
X192505639Y-88496368D01*
X192505639Y-88496368D02*
X192362782Y-88496368D01*
X192362782Y-88496368D02*
X192267543Y-88543987D01*
X192267543Y-88543987D02*
X192219924Y-88639225D01*
X192219924Y-88639225D02*
X192219924Y-89163035D01*
X201696115Y-90772979D02*
X201696115Y-89772979D01*
X201696115Y-89772979D02*
X201315163Y-89772979D01*
X201315163Y-89772979D02*
X201219925Y-89820598D01*
X201219925Y-89820598D02*
X201172306Y-89868217D01*
X201172306Y-89868217D02*
X201124687Y-89963455D01*
X201124687Y-89963455D02*
X201124687Y-90106312D01*
X201124687Y-90106312D02*
X201172306Y-90201550D01*
X201172306Y-90201550D02*
X201219925Y-90249169D01*
X201219925Y-90249169D02*
X201315163Y-90296788D01*
X201315163Y-90296788D02*
X201696115Y-90296788D01*
X200743734Y-90487264D02*
X200267544Y-90487264D01*
X200838972Y-90772979D02*
X200505639Y-89772979D01*
X200505639Y-89772979D02*
X200172306Y-90772979D01*
X199315163Y-90772979D02*
X199886591Y-90772979D01*
X199600877Y-90772979D02*
X199600877Y-89772979D01*
X199600877Y-89772979D02*
X199696115Y-89915836D01*
X199696115Y-89915836D02*
X199791353Y-90011074D01*
X199791353Y-90011074D02*
X199886591Y-90058693D01*
X198124686Y-90392026D02*
X197362782Y-90392026D01*
X196886591Y-90106312D02*
X196124687Y-90392026D01*
X196124687Y-90392026D02*
X196886591Y-90677740D01*
X194886591Y-90772979D02*
X194886591Y-89772979D01*
X194886591Y-89772979D02*
X194315163Y-90772979D01*
X194315163Y-90772979D02*
X194315163Y-89772979D01*
X193267544Y-90677740D02*
X193315163Y-90725360D01*
X193315163Y-90725360D02*
X193458020Y-90772979D01*
X193458020Y-90772979D02*
X193553258Y-90772979D01*
X193553258Y-90772979D02*
X193696115Y-90725360D01*
X193696115Y-90725360D02*
X193791353Y-90630121D01*
X193791353Y-90630121D02*
X193838972Y-90534883D01*
X193838972Y-90534883D02*
X193886591Y-90344407D01*
X193886591Y-90344407D02*
X193886591Y-90201550D01*
X193886591Y-90201550D02*
X193838972Y-90011074D01*
X193838972Y-90011074D02*
X193791353Y-89915836D01*
X193791353Y-89915836D02*
X193696115Y-89820598D01*
X193696115Y-89820598D02*
X193553258Y-89772979D01*
X193553258Y-89772979D02*
X193458020Y-89772979D01*
X193458020Y-89772979D02*
X193315163Y-89820598D01*
X193315163Y-89820598D02*
X193267544Y-89868217D01*
X201696115Y-92382923D02*
X201696115Y-91382923D01*
X201696115Y-91382923D02*
X201315163Y-91382923D01*
X201315163Y-91382923D02*
X201219925Y-91430542D01*
X201219925Y-91430542D02*
X201172306Y-91478161D01*
X201172306Y-91478161D02*
X201124687Y-91573399D01*
X201124687Y-91573399D02*
X201124687Y-91716256D01*
X201124687Y-91716256D02*
X201172306Y-91811494D01*
X201172306Y-91811494D02*
X201219925Y-91859113D01*
X201219925Y-91859113D02*
X201315163Y-91906732D01*
X201315163Y-91906732D02*
X201696115Y-91906732D01*
X200743734Y-92097208D02*
X200267544Y-92097208D01*
X200838972Y-92382923D02*
X200505639Y-91382923D01*
X200505639Y-91382923D02*
X200172306Y-92382923D01*
X199886591Y-91478161D02*
X199838972Y-91430542D01*
X199838972Y-91430542D02*
X199743734Y-91382923D01*
X199743734Y-91382923D02*
X199505639Y-91382923D01*
X199505639Y-91382923D02*
X199410401Y-91430542D01*
X199410401Y-91430542D02*
X199362782Y-91478161D01*
X199362782Y-91478161D02*
X199315163Y-91573399D01*
X199315163Y-91573399D02*
X199315163Y-91668637D01*
X199315163Y-91668637D02*
X199362782Y-91811494D01*
X199362782Y-91811494D02*
X199934210Y-92382923D01*
X199934210Y-92382923D02*
X199315163Y-92382923D01*
X198124686Y-92001970D02*
X197362782Y-92001970D01*
X196886591Y-91716256D02*
X196124687Y-92001970D01*
X196124687Y-92001970D02*
X196886591Y-92287684D01*
X194886591Y-92382923D02*
X194886591Y-91382923D01*
X194886591Y-91382923D02*
X194315163Y-92382923D01*
X194315163Y-92382923D02*
X194315163Y-91382923D01*
X193267544Y-92287684D02*
X193315163Y-92335304D01*
X193315163Y-92335304D02*
X193458020Y-92382923D01*
X193458020Y-92382923D02*
X193553258Y-92382923D01*
X193553258Y-92382923D02*
X193696115Y-92335304D01*
X193696115Y-92335304D02*
X193791353Y-92240065D01*
X193791353Y-92240065D02*
X193838972Y-92144827D01*
X193838972Y-92144827D02*
X193886591Y-91954351D01*
X193886591Y-91954351D02*
X193886591Y-91811494D01*
X193886591Y-91811494D02*
X193838972Y-91621018D01*
X193838972Y-91621018D02*
X193791353Y-91525780D01*
X193791353Y-91525780D02*
X193696115Y-91430542D01*
X193696115Y-91430542D02*
X193553258Y-91382923D01*
X193553258Y-91382923D02*
X193458020Y-91382923D01*
X193458020Y-91382923D02*
X193315163Y-91430542D01*
X193315163Y-91430542D02*
X193267544Y-91478161D01*
X201696115Y-93992867D02*
X201696115Y-92992867D01*
X201696115Y-92992867D02*
X201315163Y-92992867D01*
X201315163Y-92992867D02*
X201219925Y-93040486D01*
X201219925Y-93040486D02*
X201172306Y-93088105D01*
X201172306Y-93088105D02*
X201124687Y-93183343D01*
X201124687Y-93183343D02*
X201124687Y-93326200D01*
X201124687Y-93326200D02*
X201172306Y-93421438D01*
X201172306Y-93421438D02*
X201219925Y-93469057D01*
X201219925Y-93469057D02*
X201315163Y-93516676D01*
X201315163Y-93516676D02*
X201696115Y-93516676D01*
X200743734Y-93707152D02*
X200267544Y-93707152D01*
X200838972Y-93992867D02*
X200505639Y-92992867D01*
X200505639Y-92992867D02*
X200172306Y-93992867D01*
X199934210Y-92992867D02*
X199315163Y-92992867D01*
X199315163Y-92992867D02*
X199648496Y-93373819D01*
X199648496Y-93373819D02*
X199505639Y-93373819D01*
X199505639Y-93373819D02*
X199410401Y-93421438D01*
X199410401Y-93421438D02*
X199362782Y-93469057D01*
X199362782Y-93469057D02*
X199315163Y-93564295D01*
X199315163Y-93564295D02*
X199315163Y-93802390D01*
X199315163Y-93802390D02*
X199362782Y-93897628D01*
X199362782Y-93897628D02*
X199410401Y-93945248D01*
X199410401Y-93945248D02*
X199505639Y-93992867D01*
X199505639Y-93992867D02*
X199791353Y-93992867D01*
X199791353Y-93992867D02*
X199886591Y-93945248D01*
X199886591Y-93945248D02*
X199934210Y-93897628D01*
X198124686Y-93611914D02*
X197362782Y-93611914D01*
X196886591Y-93326200D02*
X196124687Y-93611914D01*
X196124687Y-93611914D02*
X196886591Y-93897628D01*
X194553258Y-93469057D02*
X194410401Y-93516676D01*
X194410401Y-93516676D02*
X194362782Y-93564295D01*
X194362782Y-93564295D02*
X194315163Y-93659533D01*
X194315163Y-93659533D02*
X194315163Y-93802390D01*
X194315163Y-93802390D02*
X194362782Y-93897628D01*
X194362782Y-93897628D02*
X194410401Y-93945248D01*
X194410401Y-93945248D02*
X194505639Y-93992867D01*
X194505639Y-93992867D02*
X194886591Y-93992867D01*
X194886591Y-93992867D02*
X194886591Y-92992867D01*
X194886591Y-92992867D02*
X194553258Y-92992867D01*
X194553258Y-92992867D02*
X194458020Y-93040486D01*
X194458020Y-93040486D02*
X194410401Y-93088105D01*
X194410401Y-93088105D02*
X194362782Y-93183343D01*
X194362782Y-93183343D02*
X194362782Y-93278581D01*
X194362782Y-93278581D02*
X194410401Y-93373819D01*
X194410401Y-93373819D02*
X194458020Y-93421438D01*
X194458020Y-93421438D02*
X194553258Y-93469057D01*
X194553258Y-93469057D02*
X194886591Y-93469057D01*
X193410401Y-93992867D02*
X193886591Y-93992867D01*
X193886591Y-93992867D02*
X193886591Y-92992867D01*
X193077067Y-92992867D02*
X193077067Y-93802390D01*
X193077067Y-93802390D02*
X193029448Y-93897628D01*
X193029448Y-93897628D02*
X192981829Y-93945248D01*
X192981829Y-93945248D02*
X192886591Y-93992867D01*
X192886591Y-93992867D02*
X192696115Y-93992867D01*
X192696115Y-93992867D02*
X192600877Y-93945248D01*
X192600877Y-93945248D02*
X192553258Y-93897628D01*
X192553258Y-93897628D02*
X192505639Y-93802390D01*
X192505639Y-93802390D02*
X192505639Y-92992867D01*
X201696115Y-95602811D02*
X201696115Y-94602811D01*
X201696115Y-94602811D02*
X201315163Y-94602811D01*
X201315163Y-94602811D02*
X201219925Y-94650430D01*
X201219925Y-94650430D02*
X201172306Y-94698049D01*
X201172306Y-94698049D02*
X201124687Y-94793287D01*
X201124687Y-94793287D02*
X201124687Y-94936144D01*
X201124687Y-94936144D02*
X201172306Y-95031382D01*
X201172306Y-95031382D02*
X201219925Y-95079001D01*
X201219925Y-95079001D02*
X201315163Y-95126620D01*
X201315163Y-95126620D02*
X201696115Y-95126620D01*
X200743734Y-95317096D02*
X200267544Y-95317096D01*
X200838972Y-95602811D02*
X200505639Y-94602811D01*
X200505639Y-94602811D02*
X200172306Y-95602811D01*
X199410401Y-94936144D02*
X199410401Y-95602811D01*
X199648496Y-94555192D02*
X199886591Y-95269477D01*
X199886591Y-95269477D02*
X199267544Y-95269477D01*
X198124686Y-95221858D02*
X197362782Y-95221858D01*
X196886591Y-94936144D02*
X196124687Y-95221858D01*
X196124687Y-95221858D02*
X196886591Y-95507572D01*
X194362782Y-94650430D02*
X194458020Y-94602811D01*
X194458020Y-94602811D02*
X194600877Y-94602811D01*
X194600877Y-94602811D02*
X194743734Y-94650430D01*
X194743734Y-94650430D02*
X194838972Y-94745668D01*
X194838972Y-94745668D02*
X194886591Y-94840906D01*
X194886591Y-94840906D02*
X194934210Y-95031382D01*
X194934210Y-95031382D02*
X194934210Y-95174239D01*
X194934210Y-95174239D02*
X194886591Y-95364715D01*
X194886591Y-95364715D02*
X194838972Y-95459953D01*
X194838972Y-95459953D02*
X194743734Y-95555192D01*
X194743734Y-95555192D02*
X194600877Y-95602811D01*
X194600877Y-95602811D02*
X194505639Y-95602811D01*
X194505639Y-95602811D02*
X194362782Y-95555192D01*
X194362782Y-95555192D02*
X194315163Y-95507572D01*
X194315163Y-95507572D02*
X194315163Y-95174239D01*
X194315163Y-95174239D02*
X194505639Y-95174239D01*
X193315163Y-95602811D02*
X193648496Y-95126620D01*
X193886591Y-95602811D02*
X193886591Y-94602811D01*
X193886591Y-94602811D02*
X193505639Y-94602811D01*
X193505639Y-94602811D02*
X193410401Y-94650430D01*
X193410401Y-94650430D02*
X193362782Y-94698049D01*
X193362782Y-94698049D02*
X193315163Y-94793287D01*
X193315163Y-94793287D02*
X193315163Y-94936144D01*
X193315163Y-94936144D02*
X193362782Y-95031382D01*
X193362782Y-95031382D02*
X193410401Y-95079001D01*
X193410401Y-95079001D02*
X193505639Y-95126620D01*
X193505639Y-95126620D02*
X193886591Y-95126620D01*
X192886591Y-95602811D02*
X192886591Y-94602811D01*
X192886591Y-94602811D02*
X192315163Y-95602811D01*
X192315163Y-95602811D02*
X192315163Y-94602811D01*
X201696115Y-97212755D02*
X201696115Y-96212755D01*
X201696115Y-96212755D02*
X201315163Y-96212755D01*
X201315163Y-96212755D02*
X201219925Y-96260374D01*
X201219925Y-96260374D02*
X201172306Y-96307993D01*
X201172306Y-96307993D02*
X201124687Y-96403231D01*
X201124687Y-96403231D02*
X201124687Y-96546088D01*
X201124687Y-96546088D02*
X201172306Y-96641326D01*
X201172306Y-96641326D02*
X201219925Y-96688945D01*
X201219925Y-96688945D02*
X201315163Y-96736564D01*
X201315163Y-96736564D02*
X201696115Y-96736564D01*
X200743734Y-96927040D02*
X200267544Y-96927040D01*
X200838972Y-97212755D02*
X200505639Y-96212755D01*
X200505639Y-96212755D02*
X200172306Y-97212755D01*
X199362782Y-96212755D02*
X199838972Y-96212755D01*
X199838972Y-96212755D02*
X199886591Y-96688945D01*
X199886591Y-96688945D02*
X199838972Y-96641326D01*
X199838972Y-96641326D02*
X199743734Y-96593707D01*
X199743734Y-96593707D02*
X199505639Y-96593707D01*
X199505639Y-96593707D02*
X199410401Y-96641326D01*
X199410401Y-96641326D02*
X199362782Y-96688945D01*
X199362782Y-96688945D02*
X199315163Y-96784183D01*
X199315163Y-96784183D02*
X199315163Y-97022278D01*
X199315163Y-97022278D02*
X199362782Y-97117516D01*
X199362782Y-97117516D02*
X199410401Y-97165136D01*
X199410401Y-97165136D02*
X199505639Y-97212755D01*
X199505639Y-97212755D02*
X199743734Y-97212755D01*
X199743734Y-97212755D02*
X199838972Y-97165136D01*
X199838972Y-97165136D02*
X199886591Y-97117516D01*
X198124686Y-96831802D02*
X197362782Y-96831802D01*
X196886591Y-96546088D02*
X196124687Y-96831802D01*
X196124687Y-96831802D02*
X196886591Y-97117516D01*
X194315163Y-97212755D02*
X194648496Y-96736564D01*
X194886591Y-97212755D02*
X194886591Y-96212755D01*
X194886591Y-96212755D02*
X194505639Y-96212755D01*
X194505639Y-96212755D02*
X194410401Y-96260374D01*
X194410401Y-96260374D02*
X194362782Y-96307993D01*
X194362782Y-96307993D02*
X194315163Y-96403231D01*
X194315163Y-96403231D02*
X194315163Y-96546088D01*
X194315163Y-96546088D02*
X194362782Y-96641326D01*
X194362782Y-96641326D02*
X194410401Y-96688945D01*
X194410401Y-96688945D02*
X194505639Y-96736564D01*
X194505639Y-96736564D02*
X194886591Y-96736564D01*
X193886591Y-96688945D02*
X193553258Y-96688945D01*
X193410401Y-97212755D02*
X193886591Y-97212755D01*
X193886591Y-97212755D02*
X193886591Y-96212755D01*
X193886591Y-96212755D02*
X193410401Y-96212755D01*
X192981829Y-97212755D02*
X192981829Y-96212755D01*
X192981829Y-96212755D02*
X192743734Y-96212755D01*
X192743734Y-96212755D02*
X192600877Y-96260374D01*
X192600877Y-96260374D02*
X192505639Y-96355612D01*
X192505639Y-96355612D02*
X192458020Y-96450850D01*
X192458020Y-96450850D02*
X192410401Y-96641326D01*
X192410401Y-96641326D02*
X192410401Y-96784183D01*
X192410401Y-96784183D02*
X192458020Y-96974659D01*
X192458020Y-96974659D02*
X192505639Y-97069897D01*
X192505639Y-97069897D02*
X192600877Y-97165136D01*
X192600877Y-97165136D02*
X192743734Y-97212755D01*
X192743734Y-97212755D02*
X192981829Y-97212755D01*
X201696115Y-98822699D02*
X201696115Y-97822699D01*
X201696115Y-97822699D02*
X201315163Y-97822699D01*
X201315163Y-97822699D02*
X201219925Y-97870318D01*
X201219925Y-97870318D02*
X201172306Y-97917937D01*
X201172306Y-97917937D02*
X201124687Y-98013175D01*
X201124687Y-98013175D02*
X201124687Y-98156032D01*
X201124687Y-98156032D02*
X201172306Y-98251270D01*
X201172306Y-98251270D02*
X201219925Y-98298889D01*
X201219925Y-98298889D02*
X201315163Y-98346508D01*
X201315163Y-98346508D02*
X201696115Y-98346508D01*
X200743734Y-98536984D02*
X200267544Y-98536984D01*
X200838972Y-98822699D02*
X200505639Y-97822699D01*
X200505639Y-97822699D02*
X200172306Y-98822699D01*
X199410401Y-97822699D02*
X199600877Y-97822699D01*
X199600877Y-97822699D02*
X199696115Y-97870318D01*
X199696115Y-97870318D02*
X199743734Y-97917937D01*
X199743734Y-97917937D02*
X199838972Y-98060794D01*
X199838972Y-98060794D02*
X199886591Y-98251270D01*
X199886591Y-98251270D02*
X199886591Y-98632222D01*
X199886591Y-98632222D02*
X199838972Y-98727460D01*
X199838972Y-98727460D02*
X199791353Y-98775080D01*
X199791353Y-98775080D02*
X199696115Y-98822699D01*
X199696115Y-98822699D02*
X199505639Y-98822699D01*
X199505639Y-98822699D02*
X199410401Y-98775080D01*
X199410401Y-98775080D02*
X199362782Y-98727460D01*
X199362782Y-98727460D02*
X199315163Y-98632222D01*
X199315163Y-98632222D02*
X199315163Y-98394127D01*
X199315163Y-98394127D02*
X199362782Y-98298889D01*
X199362782Y-98298889D02*
X199410401Y-98251270D01*
X199410401Y-98251270D02*
X199505639Y-98203651D01*
X199505639Y-98203651D02*
X199696115Y-98203651D01*
X199696115Y-98203651D02*
X199791353Y-98251270D01*
X199791353Y-98251270D02*
X199838972Y-98298889D01*
X199838972Y-98298889D02*
X199886591Y-98394127D01*
X198124686Y-98441746D02*
X197362782Y-98441746D01*
X196886591Y-98156032D02*
X196124687Y-98441746D01*
X196124687Y-98441746D02*
X196886591Y-98727460D01*
X194886591Y-98822699D02*
X194886591Y-97822699D01*
X194886591Y-97822699D02*
X194315163Y-98822699D01*
X194315163Y-98822699D02*
X194315163Y-97822699D01*
X193267544Y-98727460D02*
X193315163Y-98775080D01*
X193315163Y-98775080D02*
X193458020Y-98822699D01*
X193458020Y-98822699D02*
X193553258Y-98822699D01*
X193553258Y-98822699D02*
X193696115Y-98775080D01*
X193696115Y-98775080D02*
X193791353Y-98679841D01*
X193791353Y-98679841D02*
X193838972Y-98584603D01*
X193838972Y-98584603D02*
X193886591Y-98394127D01*
X193886591Y-98394127D02*
X193886591Y-98251270D01*
X193886591Y-98251270D02*
X193838972Y-98060794D01*
X193838972Y-98060794D02*
X193791353Y-97965556D01*
X193791353Y-97965556D02*
X193696115Y-97870318D01*
X193696115Y-97870318D02*
X193553258Y-97822699D01*
X193553258Y-97822699D02*
X193458020Y-97822699D01*
X193458020Y-97822699D02*
X193315163Y-97870318D01*
X193315163Y-97870318D02*
X193267544Y-97917937D01*
X201696115Y-100432643D02*
X201696115Y-99432643D01*
X201696115Y-99432643D02*
X201315163Y-99432643D01*
X201315163Y-99432643D02*
X201219925Y-99480262D01*
X201219925Y-99480262D02*
X201172306Y-99527881D01*
X201172306Y-99527881D02*
X201124687Y-99623119D01*
X201124687Y-99623119D02*
X201124687Y-99765976D01*
X201124687Y-99765976D02*
X201172306Y-99861214D01*
X201172306Y-99861214D02*
X201219925Y-99908833D01*
X201219925Y-99908833D02*
X201315163Y-99956452D01*
X201315163Y-99956452D02*
X201696115Y-99956452D01*
X200743734Y-100146928D02*
X200267544Y-100146928D01*
X200838972Y-100432643D02*
X200505639Y-99432643D01*
X200505639Y-99432643D02*
X200172306Y-100432643D01*
X199934210Y-99432643D02*
X199267544Y-99432643D01*
X199267544Y-99432643D02*
X199696115Y-100432643D01*
X198124686Y-100051690D02*
X197362782Y-100051690D01*
X196886591Y-99765976D02*
X196124687Y-100051690D01*
X196124687Y-100051690D02*
X196886591Y-100337404D01*
X194934210Y-100385024D02*
X194791353Y-100432643D01*
X194791353Y-100432643D02*
X194553258Y-100432643D01*
X194553258Y-100432643D02*
X194458020Y-100385024D01*
X194458020Y-100385024D02*
X194410401Y-100337404D01*
X194410401Y-100337404D02*
X194362782Y-100242166D01*
X194362782Y-100242166D02*
X194362782Y-100146928D01*
X194362782Y-100146928D02*
X194410401Y-100051690D01*
X194410401Y-100051690D02*
X194458020Y-100004071D01*
X194458020Y-100004071D02*
X194553258Y-99956452D01*
X194553258Y-99956452D02*
X194743734Y-99908833D01*
X194743734Y-99908833D02*
X194838972Y-99861214D01*
X194838972Y-99861214D02*
X194886591Y-99813595D01*
X194886591Y-99813595D02*
X194934210Y-99718357D01*
X194934210Y-99718357D02*
X194934210Y-99623119D01*
X194934210Y-99623119D02*
X194886591Y-99527881D01*
X194886591Y-99527881D02*
X194838972Y-99480262D01*
X194838972Y-99480262D02*
X194743734Y-99432643D01*
X194743734Y-99432643D02*
X194505639Y-99432643D01*
X194505639Y-99432643D02*
X194362782Y-99480262D01*
X194029448Y-99432643D02*
X193791353Y-100432643D01*
X193791353Y-100432643D02*
X193600877Y-99718357D01*
X193600877Y-99718357D02*
X193410401Y-100432643D01*
X193410401Y-100432643D02*
X193172306Y-99432643D01*
X201696115Y-102042587D02*
X201696115Y-101042587D01*
X201696115Y-101042587D02*
X201315163Y-101042587D01*
X201315163Y-101042587D02*
X201219925Y-101090206D01*
X201219925Y-101090206D02*
X201172306Y-101137825D01*
X201172306Y-101137825D02*
X201124687Y-101233063D01*
X201124687Y-101233063D02*
X201124687Y-101375920D01*
X201124687Y-101375920D02*
X201172306Y-101471158D01*
X201172306Y-101471158D02*
X201219925Y-101518777D01*
X201219925Y-101518777D02*
X201315163Y-101566396D01*
X201315163Y-101566396D02*
X201696115Y-101566396D01*
X200362782Y-101518777D02*
X200219925Y-101566396D01*
X200219925Y-101566396D02*
X200172306Y-101614015D01*
X200172306Y-101614015D02*
X200124687Y-101709253D01*
X200124687Y-101709253D02*
X200124687Y-101852110D01*
X200124687Y-101852110D02*
X200172306Y-101947348D01*
X200172306Y-101947348D02*
X200219925Y-101994968D01*
X200219925Y-101994968D02*
X200315163Y-102042587D01*
X200315163Y-102042587D02*
X200696115Y-102042587D01*
X200696115Y-102042587D02*
X200696115Y-101042587D01*
X200696115Y-101042587D02*
X200362782Y-101042587D01*
X200362782Y-101042587D02*
X200267544Y-101090206D01*
X200267544Y-101090206D02*
X200219925Y-101137825D01*
X200219925Y-101137825D02*
X200172306Y-101233063D01*
X200172306Y-101233063D02*
X200172306Y-101328301D01*
X200172306Y-101328301D02*
X200219925Y-101423539D01*
X200219925Y-101423539D02*
X200267544Y-101471158D01*
X200267544Y-101471158D02*
X200362782Y-101518777D01*
X200362782Y-101518777D02*
X200696115Y-101518777D01*
X199505639Y-101042587D02*
X199410401Y-101042587D01*
X199410401Y-101042587D02*
X199315163Y-101090206D01*
X199315163Y-101090206D02*
X199267544Y-101137825D01*
X199267544Y-101137825D02*
X199219925Y-101233063D01*
X199219925Y-101233063D02*
X199172306Y-101423539D01*
X199172306Y-101423539D02*
X199172306Y-101661634D01*
X199172306Y-101661634D02*
X199219925Y-101852110D01*
X199219925Y-101852110D02*
X199267544Y-101947348D01*
X199267544Y-101947348D02*
X199315163Y-101994968D01*
X199315163Y-101994968D02*
X199410401Y-102042587D01*
X199410401Y-102042587D02*
X199505639Y-102042587D01*
X199505639Y-102042587D02*
X199600877Y-101994968D01*
X199600877Y-101994968D02*
X199648496Y-101947348D01*
X199648496Y-101947348D02*
X199696115Y-101852110D01*
X199696115Y-101852110D02*
X199743734Y-101661634D01*
X199743734Y-101661634D02*
X199743734Y-101423539D01*
X199743734Y-101423539D02*
X199696115Y-101233063D01*
X199696115Y-101233063D02*
X199648496Y-101137825D01*
X199648496Y-101137825D02*
X199600877Y-101090206D01*
X199600877Y-101090206D02*
X199505639Y-101042587D01*
X197981829Y-101661634D02*
X197219925Y-101661634D01*
X196743734Y-101375920D02*
X195981830Y-101661634D01*
X195981830Y-101661634D02*
X196743734Y-101947348D01*
X194791353Y-101994968D02*
X194648496Y-102042587D01*
X194648496Y-102042587D02*
X194410401Y-102042587D01*
X194410401Y-102042587D02*
X194315163Y-101994968D01*
X194315163Y-101994968D02*
X194267544Y-101947348D01*
X194267544Y-101947348D02*
X194219925Y-101852110D01*
X194219925Y-101852110D02*
X194219925Y-101756872D01*
X194219925Y-101756872D02*
X194267544Y-101661634D01*
X194267544Y-101661634D02*
X194315163Y-101614015D01*
X194315163Y-101614015D02*
X194410401Y-101566396D01*
X194410401Y-101566396D02*
X194600877Y-101518777D01*
X194600877Y-101518777D02*
X194696115Y-101471158D01*
X194696115Y-101471158D02*
X194743734Y-101423539D01*
X194743734Y-101423539D02*
X194791353Y-101328301D01*
X194791353Y-101328301D02*
X194791353Y-101233063D01*
X194791353Y-101233063D02*
X194743734Y-101137825D01*
X194743734Y-101137825D02*
X194696115Y-101090206D01*
X194696115Y-101090206D02*
X194600877Y-101042587D01*
X194600877Y-101042587D02*
X194362782Y-101042587D01*
X194362782Y-101042587D02*
X194219925Y-101090206D01*
X193219925Y-101947348D02*
X193267544Y-101994968D01*
X193267544Y-101994968D02*
X193410401Y-102042587D01*
X193410401Y-102042587D02*
X193505639Y-102042587D01*
X193505639Y-102042587D02*
X193648496Y-101994968D01*
X193648496Y-101994968D02*
X193743734Y-101899729D01*
X193743734Y-101899729D02*
X193791353Y-101804491D01*
X193791353Y-101804491D02*
X193838972Y-101614015D01*
X193838972Y-101614015D02*
X193838972Y-101471158D01*
X193838972Y-101471158D02*
X193791353Y-101280682D01*
X193791353Y-101280682D02*
X193743734Y-101185444D01*
X193743734Y-101185444D02*
X193648496Y-101090206D01*
X193648496Y-101090206D02*
X193505639Y-101042587D01*
X193505639Y-101042587D02*
X193410401Y-101042587D01*
X193410401Y-101042587D02*
X193267544Y-101090206D01*
X193267544Y-101090206D02*
X193219925Y-101137825D01*
X192315163Y-102042587D02*
X192791353Y-102042587D01*
X192791353Y-102042587D02*
X192791353Y-101042587D01*
X201696115Y-103652531D02*
X201696115Y-102652531D01*
X201696115Y-102652531D02*
X201315163Y-102652531D01*
X201315163Y-102652531D02*
X201219925Y-102700150D01*
X201219925Y-102700150D02*
X201172306Y-102747769D01*
X201172306Y-102747769D02*
X201124687Y-102843007D01*
X201124687Y-102843007D02*
X201124687Y-102985864D01*
X201124687Y-102985864D02*
X201172306Y-103081102D01*
X201172306Y-103081102D02*
X201219925Y-103128721D01*
X201219925Y-103128721D02*
X201315163Y-103176340D01*
X201315163Y-103176340D02*
X201696115Y-103176340D01*
X200362782Y-103128721D02*
X200219925Y-103176340D01*
X200219925Y-103176340D02*
X200172306Y-103223959D01*
X200172306Y-103223959D02*
X200124687Y-103319197D01*
X200124687Y-103319197D02*
X200124687Y-103462054D01*
X200124687Y-103462054D02*
X200172306Y-103557292D01*
X200172306Y-103557292D02*
X200219925Y-103604912D01*
X200219925Y-103604912D02*
X200315163Y-103652531D01*
X200315163Y-103652531D02*
X200696115Y-103652531D01*
X200696115Y-103652531D02*
X200696115Y-102652531D01*
X200696115Y-102652531D02*
X200362782Y-102652531D01*
X200362782Y-102652531D02*
X200267544Y-102700150D01*
X200267544Y-102700150D02*
X200219925Y-102747769D01*
X200219925Y-102747769D02*
X200172306Y-102843007D01*
X200172306Y-102843007D02*
X200172306Y-102938245D01*
X200172306Y-102938245D02*
X200219925Y-103033483D01*
X200219925Y-103033483D02*
X200267544Y-103081102D01*
X200267544Y-103081102D02*
X200362782Y-103128721D01*
X200362782Y-103128721D02*
X200696115Y-103128721D01*
X199172306Y-103652531D02*
X199743734Y-103652531D01*
X199458020Y-103652531D02*
X199458020Y-102652531D01*
X199458020Y-102652531D02*
X199553258Y-102795388D01*
X199553258Y-102795388D02*
X199648496Y-102890626D01*
X199648496Y-102890626D02*
X199743734Y-102938245D01*
X197981829Y-103271578D02*
X197219925Y-103271578D01*
X196743734Y-102985864D02*
X195981830Y-103271578D01*
X195981830Y-103271578D02*
X196743734Y-103557292D01*
X194791353Y-103604912D02*
X194648496Y-103652531D01*
X194648496Y-103652531D02*
X194410401Y-103652531D01*
X194410401Y-103652531D02*
X194315163Y-103604912D01*
X194315163Y-103604912D02*
X194267544Y-103557292D01*
X194267544Y-103557292D02*
X194219925Y-103462054D01*
X194219925Y-103462054D02*
X194219925Y-103366816D01*
X194219925Y-103366816D02*
X194267544Y-103271578D01*
X194267544Y-103271578D02*
X194315163Y-103223959D01*
X194315163Y-103223959D02*
X194410401Y-103176340D01*
X194410401Y-103176340D02*
X194600877Y-103128721D01*
X194600877Y-103128721D02*
X194696115Y-103081102D01*
X194696115Y-103081102D02*
X194743734Y-103033483D01*
X194743734Y-103033483D02*
X194791353Y-102938245D01*
X194791353Y-102938245D02*
X194791353Y-102843007D01*
X194791353Y-102843007D02*
X194743734Y-102747769D01*
X194743734Y-102747769D02*
X194696115Y-102700150D01*
X194696115Y-102700150D02*
X194600877Y-102652531D01*
X194600877Y-102652531D02*
X194362782Y-102652531D01*
X194362782Y-102652531D02*
X194219925Y-102700150D01*
X193791353Y-103652531D02*
X193791353Y-102652531D01*
X193791353Y-102652531D02*
X193553258Y-102652531D01*
X193553258Y-102652531D02*
X193410401Y-102700150D01*
X193410401Y-102700150D02*
X193315163Y-102795388D01*
X193315163Y-102795388D02*
X193267544Y-102890626D01*
X193267544Y-102890626D02*
X193219925Y-103081102D01*
X193219925Y-103081102D02*
X193219925Y-103223959D01*
X193219925Y-103223959D02*
X193267544Y-103414435D01*
X193267544Y-103414435D02*
X193315163Y-103509673D01*
X193315163Y-103509673D02*
X193410401Y-103604912D01*
X193410401Y-103604912D02*
X193553258Y-103652531D01*
X193553258Y-103652531D02*
X193791353Y-103652531D01*
X192838972Y-103366816D02*
X192362782Y-103366816D01*
X192934210Y-103652531D02*
X192600877Y-102652531D01*
X192600877Y-102652531D02*
X192267544Y-103652531D01*
X201696115Y-105262475D02*
X201696115Y-104262475D01*
X201696115Y-104262475D02*
X201315163Y-104262475D01*
X201315163Y-104262475D02*
X201219925Y-104310094D01*
X201219925Y-104310094D02*
X201172306Y-104357713D01*
X201172306Y-104357713D02*
X201124687Y-104452951D01*
X201124687Y-104452951D02*
X201124687Y-104595808D01*
X201124687Y-104595808D02*
X201172306Y-104691046D01*
X201172306Y-104691046D02*
X201219925Y-104738665D01*
X201219925Y-104738665D02*
X201315163Y-104786284D01*
X201315163Y-104786284D02*
X201696115Y-104786284D01*
X200362782Y-104738665D02*
X200219925Y-104786284D01*
X200219925Y-104786284D02*
X200172306Y-104833903D01*
X200172306Y-104833903D02*
X200124687Y-104929141D01*
X200124687Y-104929141D02*
X200124687Y-105071998D01*
X200124687Y-105071998D02*
X200172306Y-105167236D01*
X200172306Y-105167236D02*
X200219925Y-105214856D01*
X200219925Y-105214856D02*
X200315163Y-105262475D01*
X200315163Y-105262475D02*
X200696115Y-105262475D01*
X200696115Y-105262475D02*
X200696115Y-104262475D01*
X200696115Y-104262475D02*
X200362782Y-104262475D01*
X200362782Y-104262475D02*
X200267544Y-104310094D01*
X200267544Y-104310094D02*
X200219925Y-104357713D01*
X200219925Y-104357713D02*
X200172306Y-104452951D01*
X200172306Y-104452951D02*
X200172306Y-104548189D01*
X200172306Y-104548189D02*
X200219925Y-104643427D01*
X200219925Y-104643427D02*
X200267544Y-104691046D01*
X200267544Y-104691046D02*
X200362782Y-104738665D01*
X200362782Y-104738665D02*
X200696115Y-104738665D01*
X199743734Y-104357713D02*
X199696115Y-104310094D01*
X199696115Y-104310094D02*
X199600877Y-104262475D01*
X199600877Y-104262475D02*
X199362782Y-104262475D01*
X199362782Y-104262475D02*
X199267544Y-104310094D01*
X199267544Y-104310094D02*
X199219925Y-104357713D01*
X199219925Y-104357713D02*
X199172306Y-104452951D01*
X199172306Y-104452951D02*
X199172306Y-104548189D01*
X199172306Y-104548189D02*
X199219925Y-104691046D01*
X199219925Y-104691046D02*
X199791353Y-105262475D01*
X199791353Y-105262475D02*
X199172306Y-105262475D01*
X197981829Y-104881522D02*
X197219925Y-104881522D01*
X196743734Y-104595808D02*
X195981830Y-104881522D01*
X195981830Y-104881522D02*
X196743734Y-105167236D01*
X194886591Y-104262475D02*
X194315163Y-104262475D01*
X194600877Y-105262475D02*
X194600877Y-104262475D01*
X194077067Y-104262475D02*
X193410401Y-105262475D01*
X193410401Y-104262475D02*
X194077067Y-105262475D01*
X193029448Y-105262475D02*
X193029448Y-104262475D01*
X193029448Y-104262475D02*
X192791353Y-104262475D01*
X192791353Y-104262475D02*
X192648496Y-104310094D01*
X192648496Y-104310094D02*
X192553258Y-104405332D01*
X192553258Y-104405332D02*
X192505639Y-104500570D01*
X192505639Y-104500570D02*
X192458020Y-104691046D01*
X192458020Y-104691046D02*
X192458020Y-104833903D01*
X192458020Y-104833903D02*
X192505639Y-105024379D01*
X192505639Y-105024379D02*
X192553258Y-105119617D01*
X192553258Y-105119617D02*
X192648496Y-105214856D01*
X192648496Y-105214856D02*
X192791353Y-105262475D01*
X192791353Y-105262475D02*
X193029448Y-105262475D01*
X201696115Y-106872419D02*
X201696115Y-105872419D01*
X201696115Y-105872419D02*
X201315163Y-105872419D01*
X201315163Y-105872419D02*
X201219925Y-105920038D01*
X201219925Y-105920038D02*
X201172306Y-105967657D01*
X201172306Y-105967657D02*
X201124687Y-106062895D01*
X201124687Y-106062895D02*
X201124687Y-106205752D01*
X201124687Y-106205752D02*
X201172306Y-106300990D01*
X201172306Y-106300990D02*
X201219925Y-106348609D01*
X201219925Y-106348609D02*
X201315163Y-106396228D01*
X201315163Y-106396228D02*
X201696115Y-106396228D01*
X200362782Y-106348609D02*
X200219925Y-106396228D01*
X200219925Y-106396228D02*
X200172306Y-106443847D01*
X200172306Y-106443847D02*
X200124687Y-106539085D01*
X200124687Y-106539085D02*
X200124687Y-106681942D01*
X200124687Y-106681942D02*
X200172306Y-106777180D01*
X200172306Y-106777180D02*
X200219925Y-106824800D01*
X200219925Y-106824800D02*
X200315163Y-106872419D01*
X200315163Y-106872419D02*
X200696115Y-106872419D01*
X200696115Y-106872419D02*
X200696115Y-105872419D01*
X200696115Y-105872419D02*
X200362782Y-105872419D01*
X200362782Y-105872419D02*
X200267544Y-105920038D01*
X200267544Y-105920038D02*
X200219925Y-105967657D01*
X200219925Y-105967657D02*
X200172306Y-106062895D01*
X200172306Y-106062895D02*
X200172306Y-106158133D01*
X200172306Y-106158133D02*
X200219925Y-106253371D01*
X200219925Y-106253371D02*
X200267544Y-106300990D01*
X200267544Y-106300990D02*
X200362782Y-106348609D01*
X200362782Y-106348609D02*
X200696115Y-106348609D01*
X199791353Y-105872419D02*
X199172306Y-105872419D01*
X199172306Y-105872419D02*
X199505639Y-106253371D01*
X199505639Y-106253371D02*
X199362782Y-106253371D01*
X199362782Y-106253371D02*
X199267544Y-106300990D01*
X199267544Y-106300990D02*
X199219925Y-106348609D01*
X199219925Y-106348609D02*
X199172306Y-106443847D01*
X199172306Y-106443847D02*
X199172306Y-106681942D01*
X199172306Y-106681942D02*
X199219925Y-106777180D01*
X199219925Y-106777180D02*
X199267544Y-106824800D01*
X199267544Y-106824800D02*
X199362782Y-106872419D01*
X199362782Y-106872419D02*
X199648496Y-106872419D01*
X199648496Y-106872419D02*
X199743734Y-106824800D01*
X199743734Y-106824800D02*
X199791353Y-106777180D01*
X197981829Y-106491466D02*
X197219925Y-106491466D01*
X196743734Y-106205752D02*
X195981830Y-106491466D01*
X195981830Y-106491466D02*
X196743734Y-106777180D01*
X194743734Y-106872419D02*
X194743734Y-105872419D01*
X193696116Y-106872419D02*
X194029449Y-106396228D01*
X194267544Y-106872419D02*
X194267544Y-105872419D01*
X194267544Y-105872419D02*
X193886592Y-105872419D01*
X193886592Y-105872419D02*
X193791354Y-105920038D01*
X193791354Y-105920038D02*
X193743735Y-105967657D01*
X193743735Y-105967657D02*
X193696116Y-106062895D01*
X193696116Y-106062895D02*
X193696116Y-106205752D01*
X193696116Y-106205752D02*
X193743735Y-106300990D01*
X193743735Y-106300990D02*
X193791354Y-106348609D01*
X193791354Y-106348609D02*
X193886592Y-106396228D01*
X193886592Y-106396228D02*
X194267544Y-106396228D01*
%TO.C,SW1*%
D11*
X198875700Y-112800000D02*
G75*
G02*
X198113700Y-112800000I-381000J0D01*
G01*
X198113700Y-112800000D02*
G75*
G02*
X198875700Y-112800000I381000J0D01*
G01*
%TD*%
M02*
