%TF.GenerationSoftware,KiCad,Pcbnew,10.0.2*%
%TF.CreationDate,2026-07-05T17:23:39-05:00*%
%TF.ProjectId,Double-DigiPot-with-IR,446f7562-6c65-42d4-9469-6769506f742d,rev?*%
%TF.SameCoordinates,Original*%
%TF.FileFunction,Copper,L2,Bot*%
%TF.FilePolarity,Positive*%
%FSLAX46Y46*%
G04 Gerber Fmt 4.6, Leading zero omitted, Abs format (unit mm)*
G04 Created by KiCad (PCBNEW 10.0.2) date 2026-07-05 17:23:39*
%MOMM*%
%LPD*%
G01*
G04 APERTURE LIST*
G04 Aperture macros list*
%AMRoundRect*
0 Rectangle with rounded corners*
0 $1 Rounding radius*
0 $2 $3 $4 $5 $6 $7 $8 $9 X,Y pos of 4 corners*
0 Add a 4 corners polygon primitive as box body*
4,1,4,$2,$3,$4,$5,$6,$7,$8,$9,$2,$3,0*
0 Add four circle primitives for the rounded corners*
1,1,$1+$1,$2,$3*
1,1,$1+$1,$4,$5*
1,1,$1+$1,$6,$7*
1,1,$1+$1,$8,$9*
0 Add four rect primitives between the rounded corners*
20,1,$1+$1,$2,$3,$4,$5,0*
20,1,$1+$1,$4,$5,$6,$7,0*
20,1,$1+$1,$6,$7,$8,$9,0*
20,1,$1+$1,$8,$9,$2,$3,0*%
G04 Aperture macros list end*
%TA.AperFunction,ComponentPad*%
%ADD10RoundRect,0.450000X-0.450000X-0.450000X0.450000X-0.450000X0.450000X0.450000X-0.450000X0.450000X0*%
%TD*%
%TA.AperFunction,ComponentPad*%
%ADD11C,1.800000*%
%TD*%
%TA.AperFunction,ComponentPad*%
%ADD12R,1.700000X1.700000*%
%TD*%
%TA.AperFunction,ComponentPad*%
%ADD13C,1.700000*%
%TD*%
%TA.AperFunction,ComponentPad*%
%ADD14RoundRect,0.250200X-0.649800X-0.649800X0.649800X-0.649800X0.649800X0.649800X-0.649800X0.649800X0*%
%TD*%
%TA.AperFunction,ComponentPad*%
%ADD15C,1.498600*%
%TD*%
%TA.AperFunction,ViaPad*%
%ADD16C,0.600000*%
%TD*%
%TA.AperFunction,Conductor*%
%ADD17C,0.300000*%
%TD*%
%TA.AperFunction,Conductor*%
%ADD18C,0.500000*%
%TD*%
G04 APERTURE END LIST*
D10*
%TO.P,D1,1,RA_1*%
%TO.N,Net-(D1-RA)*%
X177790000Y-116840000D03*
D11*
%TO.P,D1,2,K_2*%
%TO.N,GND*%
X179568000Y-118364000D03*
%TO.P,D1,3,GA_3*%
%TO.N,Net-(D1-GA)*%
X181092000Y-116840000D03*
%TO.P,D1,4,BA_4*%
%TO.N,Net-(D1-BA)*%
X182616000Y-118364000D03*
%TD*%
D12*
%TO.P,J1,1,Pin_1_1*%
%TO.N,LED pwr*%
X202160000Y-77500000D03*
D13*
%TO.P,J1,2,Pin_2_2*%
%TO.N,Styin*%
X199620000Y-77500000D03*
%TO.P,J1,3,Pin_3_3*%
%TO.N,Styout*%
X197080000Y-77500000D03*
%TO.P,J1,4,Pin_4_4*%
%TO.N,Net-(J1-Pin_4)*%
X194540000Y-77500000D03*
%TO.P,J1,5,Pin_5_5*%
%TO.N,Net-(J1-Pin_5)*%
X192000000Y-77500000D03*
%TO.P,J1,6,Pin_6_6*%
%TO.N,GND*%
X189460000Y-77500000D03*
%TO.P,J1,7,Pin_7_7*%
%TO.N,Net-(J1-Pin_7)*%
X186920000Y-77500000D03*
%TO.P,J1,8,Pin_8_8*%
%TO.N,Net-(J1-Pin_8)*%
X184380000Y-77500000D03*
%TO.P,J1,9,Pin_9_9*%
%TO.N,GND*%
X181840000Y-77500000D03*
%TD*%
D14*
%TO.P,U4,1,OUT_1*%
%TO.N,Net-(U1-PB3)*%
X189060000Y-130175000D03*
D11*
%TO.P,U4,2,GND_2*%
%TO.N,GND*%
X191600000Y-130175000D03*
%TO.P,U4,3,Vs_3*%
%TO.N,5*%
X194140000Y-130175000D03*
%TD*%
D15*
%TO.P,SW1,1,A_1*%
%TO.N,GND*%
X201904900Y-112800000D03*
%TO.P,SW1,2,B_2*%
%TO.N,Styout*%
X203904900Y-112800000D03*
%TO.P,SW1,3,C_3*%
%TO.N,Styin*%
X205904901Y-112800000D03*
%TO.P,SW1,4,A_4*%
%TO.N,GND*%
X201904900Y-117800000D03*
%TO.P,SW1,5,B_5*%
%TO.N,Net-(U1-PA7)*%
X203904900Y-117800000D03*
%TO.P,SW1,6,C_6*%
%TO.N,5*%
X205904901Y-117800000D03*
%TD*%
D16*
%TO.N,TXD*%
X197500000Y-123500000D03*
X207500000Y-111000000D03*
%TO.N,Net-(U1-PA7)*%
X197500000Y-122000000D03*
%TO.N,GND*%
X192500000Y-104000000D03*
X188500000Y-104000000D03*
X196200000Y-97400000D03*
X182000000Y-113200000D03*
X177000000Y-102800000D03*
X175972003Y-110800000D03*
X180800000Y-113200000D03*
X175972003Y-113200000D03*
X181800000Y-103800000D03*
X178400000Y-112000000D03*
X177200000Y-113200000D03*
X175400000Y-113200000D03*
X187200000Y-102800000D03*
X178400000Y-111400000D03*
X200800000Y-81000000D03*
X208600000Y-86400000D03*
X179000000Y-111400000D03*
X180200000Y-113200000D03*
X183200000Y-113200000D03*
X175400000Y-112600000D03*
X186800000Y-88600000D03*
X180800000Y-112000000D03*
X185800000Y-119600000D03*
X177800000Y-112000000D03*
X177800000Y-110800000D03*
X179000000Y-112000000D03*
X178400000Y-112600000D03*
X193600000Y-88600000D03*
X176600000Y-112600000D03*
X176600000Y-111400000D03*
X179000000Y-112600000D03*
X183800000Y-112600000D03*
X175400000Y-111400000D03*
X180800000Y-112600000D03*
X177200000Y-112000000D03*
X183200000Y-112000000D03*
X179600000Y-113200000D03*
X175400000Y-110800000D03*
X179000000Y-110800000D03*
X182600000Y-111400000D03*
X180800000Y-110800000D03*
X175972003Y-112000000D03*
X183800000Y-111400000D03*
X175400000Y-112000000D03*
X177200000Y-112600000D03*
X183200000Y-110800000D03*
X179000000Y-113200000D03*
X209400000Y-97600000D03*
X180800000Y-111400000D03*
X177200000Y-111400000D03*
X178400000Y-113200000D03*
X196400000Y-81000000D03*
X188200000Y-117200000D03*
X181400000Y-113200000D03*
X182600000Y-112600000D03*
%TO.N,/ref*%
X190224999Y-100568400D03*
X196200000Y-99400000D03*
%TO.N,LED pwr*%
X200413173Y-84186827D03*
%TO.N,Rout*%
X190200000Y-96800000D03*
X190300000Y-85800000D03*
%TO.N,Rin*%
X191474999Y-96800000D03*
X191600000Y-91900000D03*
%TO.N,Net-(U1-PB0)*%
X192400000Y-107000000D03*
X195520000Y-110600000D03*
%TO.N,Net-(U1-PB1)*%
X193000000Y-105400000D03*
X195800000Y-109400000D03*
%TO.N,Lin*%
X188800000Y-91900000D03*
X185543600Y-99456400D03*
%TO.N,Lout*%
X180400000Y-97800000D03*
X183400000Y-84800000D03*
%TO.N,Net-(U1-~{RESET}{slash}PA0)*%
X203000000Y-106400000D03*
X194000000Y-116600000D03*
%TD*%
%TO.N,Net-(U1-PB1)*%
D17*
X193000000Y-106600000D02*
X195800000Y-109400000D01*
X193000000Y-105400000D02*
X193000000Y-106600000D01*
%TO.N,Net-(U1-PB0)*%
X195480601Y-110080601D02*
X192400000Y-107000000D01*
X195480601Y-110560601D02*
X195480601Y-110080601D01*
X195520000Y-110600000D02*
X195480601Y-110560601D01*
%TO.N,TXD*%
X202000000Y-123500000D02*
X197500000Y-123500000D01*
X207500000Y-111000000D02*
X207500000Y-118000000D01*
X207500000Y-118000000D02*
X202000000Y-123500000D01*
%TO.N,Net-(U1-PA7)*%
X199704900Y-122000000D02*
X203904900Y-117800000D01*
X197500000Y-122000000D02*
X199704900Y-122000000D01*
%TO.N,/ref*%
X195000000Y-99400000D02*
X193831600Y-100568400D01*
X196200000Y-99400000D02*
X195000000Y-99400000D01*
X193831600Y-100568400D02*
X190224999Y-100568400D01*
%TO.N,LED pwr*%
D18*
X199600000Y-80060000D02*
X202160000Y-77500000D01*
X202100000Y-77500000D02*
X202160000Y-77500000D01*
X199600000Y-83373654D02*
X199600000Y-80060000D01*
X200413173Y-84186827D02*
X199600000Y-83373654D01*
%TO.N,Styin*%
D17*
X199853553Y-84546447D02*
X206000000Y-90692894D01*
X206000000Y-90692894D02*
X206000000Y-112704901D01*
X199620000Y-77500000D02*
X198800000Y-78320000D01*
X198800000Y-83492894D02*
X199853553Y-84546447D01*
X198800000Y-78320000D02*
X198800000Y-83492894D01*
X206000000Y-112704901D02*
X205904901Y-112800000D01*
%TO.N,Styout*%
X197100000Y-77500000D02*
X197080000Y-77520000D01*
X203800000Y-112695100D02*
X203904900Y-112800000D01*
X197080000Y-77520000D02*
X197080000Y-82480000D01*
X199750000Y-85150000D02*
X203800000Y-89200000D01*
X203800000Y-89200000D02*
X203800000Y-112695100D01*
X197080000Y-82480000D02*
X199750000Y-85150000D01*
X197080000Y-77500000D02*
X197100000Y-77500000D01*
%TO.N,Rout*%
X190200000Y-85900000D02*
X190300000Y-85800000D01*
X190200000Y-96800000D02*
X190200000Y-85900000D01*
%TO.N,Rin*%
X191474999Y-96800000D02*
X191474999Y-92025001D01*
X191474999Y-92025001D02*
X191600000Y-91900000D01*
%TO.N,Lin*%
X188800000Y-91900000D02*
X188800000Y-96200000D01*
X188800000Y-96200000D02*
X185543600Y-99456400D01*
%TO.N,Lout*%
X183400000Y-94800000D02*
X183400000Y-84800000D01*
X180400000Y-97800000D02*
X183400000Y-94800000D01*
%TO.N,Net-(U1-~{RESET}{slash}PA0)*%
X203000000Y-106400000D02*
X203000000Y-107600000D01*
X203000000Y-107600000D02*
X194000000Y-116600000D01*
%TD*%
%TA.AperFunction,Conductor*%
%TO.N,GND*%
G36*
X203609586Y-74521724D02*
G01*
X203631064Y-74538891D01*
X204166945Y-75074810D01*
X204170193Y-75078184D01*
X204768105Y-75723765D01*
X204843544Y-75805218D01*
X204846745Y-75808812D01*
X205480836Y-76549131D01*
X205483937Y-76552899D01*
X206078718Y-77305332D01*
X206081707Y-77309272D01*
X206294335Y-77601497D01*
X206561740Y-77969006D01*
X206636878Y-78072271D01*
X206639739Y-78076375D01*
X206834257Y-78367777D01*
X207154901Y-78848128D01*
X207157635Y-78852413D01*
X207632133Y-79630528D01*
X207634728Y-79634990D01*
X208067795Y-80416585D01*
X208070242Y-80421230D01*
X208460841Y-81202476D01*
X208463134Y-81207321D01*
X208809992Y-81983211D01*
X208812125Y-81988280D01*
X209113729Y-82752161D01*
X209115696Y-82757499D01*
X209370278Y-83500362D01*
X209372074Y-83506045D01*
X209577694Y-84215515D01*
X209579311Y-84221682D01*
X209735061Y-84884876D01*
X209736146Y-84889981D01*
X209778586Y-85112711D01*
X209793677Y-85191911D01*
X209794330Y-85195648D01*
X209838514Y-85473519D01*
X209839096Y-85477623D01*
X209870957Y-85732723D01*
X209871449Y-85737378D01*
X209890380Y-85955689D01*
X209890766Y-85962017D01*
X209899422Y-86206646D01*
X209899500Y-86211031D01*
X209899500Y-115947309D01*
X209897696Y-115968385D01*
X209761067Y-116760528D01*
X209759971Y-116766113D01*
X209578563Y-117590101D01*
X209577212Y-117595630D01*
X209358186Y-118410426D01*
X209356583Y-118415887D01*
X209100396Y-119219787D01*
X209098544Y-119225168D01*
X208805744Y-120016454D01*
X208803647Y-120021745D01*
X208474841Y-120798777D01*
X208472503Y-120803966D01*
X208108404Y-121565064D01*
X208105831Y-121570140D01*
X207707166Y-122313775D01*
X207704362Y-122318728D01*
X207272029Y-123043232D01*
X207269002Y-123048051D01*
X206803851Y-123751996D01*
X206800605Y-123756671D01*
X206303662Y-124438506D01*
X206300205Y-124443028D01*
X205772475Y-125101373D01*
X205768814Y-125105730D01*
X205211475Y-125739116D01*
X205207619Y-125743302D01*
X204621758Y-126350495D01*
X204617713Y-126354499D01*
X204004630Y-126934149D01*
X204000406Y-126937963D01*
X203361360Y-127488881D01*
X203356965Y-127492497D01*
X202693331Y-128013497D01*
X202688775Y-128016908D01*
X202001914Y-128506922D01*
X201997206Y-128510120D01*
X201288608Y-128968087D01*
X201283759Y-128971066D01*
X200554868Y-129396050D01*
X200549887Y-129398803D01*
X199802265Y-129789893D01*
X199797163Y-129792414D01*
X199032401Y-130148780D01*
X199027188Y-130151065D01*
X198246865Y-130471968D01*
X198241553Y-130474011D01*
X197447351Y-130758763D01*
X197441951Y-130760561D01*
X196635474Y-131008585D01*
X196629997Y-131010132D01*
X195813037Y-131220877D01*
X195807495Y-131222172D01*
X194981699Y-131395214D01*
X194976104Y-131396253D01*
X194143236Y-131531220D01*
X194137598Y-131532001D01*
X193299434Y-131628609D01*
X193293767Y-131629131D01*
X192452031Y-131687178D01*
X192446346Y-131687439D01*
X191602846Y-131706801D01*
X191597154Y-131706801D01*
X190753653Y-131687439D01*
X190747968Y-131687178D01*
X189906232Y-131629131D01*
X189900565Y-131628609D01*
X189062401Y-131532001D01*
X189056764Y-131531220D01*
X188875849Y-131501903D01*
X188812821Y-131471748D01*
X188776102Y-131412305D01*
X188777349Y-131342447D01*
X188816167Y-131284352D01*
X188880231Y-131256467D01*
X188895684Y-131255500D01*
X189761688Y-131255500D01*
X189774614Y-131254287D01*
X189790777Y-131252772D01*
X189790781Y-131252770D01*
X189790784Y-131252770D01*
X189838703Y-131236001D01*
X189913326Y-131209890D01*
X190017791Y-131132791D01*
X190094890Y-131028326D01*
X190137772Y-130905777D01*
X190139287Y-130889614D01*
X190140500Y-130876688D01*
X190140500Y-130089963D01*
X193059500Y-130089963D01*
X193059500Y-130260036D01*
X193086106Y-130428019D01*
X193138658Y-130589761D01*
X193138660Y-130589764D01*
X193138661Y-130589768D01*
X193215874Y-130741305D01*
X193315841Y-130878898D01*
X193436102Y-130999159D01*
X193573695Y-131099126D01*
X193725232Y-131176339D01*
X193886982Y-131228894D01*
X194054963Y-131255500D01*
X194054964Y-131255500D01*
X194225036Y-131255500D01*
X194225037Y-131255500D01*
X194393018Y-131228894D01*
X194554768Y-131176339D01*
X194706305Y-131099126D01*
X194843898Y-130999159D01*
X194964159Y-130878898D01*
X195064126Y-130741305D01*
X195141339Y-130589768D01*
X195193894Y-130428018D01*
X195220500Y-130260037D01*
X195220500Y-130089963D01*
X195193894Y-129921982D01*
X195141339Y-129760232D01*
X195064126Y-129608695D01*
X194964159Y-129471102D01*
X194843898Y-129350841D01*
X194706305Y-129250874D01*
X194554768Y-129173661D01*
X194554764Y-129173660D01*
X194554761Y-129173658D01*
X194393019Y-129121106D01*
X194309027Y-129107803D01*
X194225037Y-129094500D01*
X194054963Y-129094500D01*
X193998969Y-129103368D01*
X193886980Y-129121106D01*
X193725238Y-129173658D01*
X193573694Y-129250874D01*
X193436099Y-129350843D01*
X193315843Y-129471099D01*
X193215874Y-129608694D01*
X193138658Y-129760238D01*
X193086106Y-129921980D01*
X193059500Y-130089963D01*
X190140500Y-130089963D01*
X190140500Y-129473311D01*
X190137772Y-129444227D01*
X190137772Y-129444223D01*
X190137770Y-129444219D01*
X190137770Y-129444215D01*
X190094890Y-129321675D01*
X190094890Y-129321674D01*
X190042637Y-129250874D01*
X190017791Y-129217208D01*
X189947017Y-129164975D01*
X189913326Y-129140110D01*
X189913324Y-129140109D01*
X189790784Y-129097229D01*
X189790772Y-129097227D01*
X189761688Y-129094500D01*
X189761684Y-129094500D01*
X188358316Y-129094500D01*
X188358312Y-129094500D01*
X188329227Y-129097227D01*
X188329215Y-129097229D01*
X188206675Y-129140109D01*
X188102208Y-129217208D01*
X188025109Y-129321675D01*
X187982229Y-129444215D01*
X187982227Y-129444227D01*
X187979500Y-129473311D01*
X187979500Y-130876688D01*
X187982227Y-130905772D01*
X187982229Y-130905784D01*
X188025109Y-131028324D01*
X188102210Y-131132793D01*
X188108779Y-131139362D01*
X188106078Y-131142062D01*
X188137252Y-131183074D01*
X188142747Y-131252727D01*
X188109713Y-131314294D01*
X188048638Y-131348229D01*
X187995960Y-131348623D01*
X187392504Y-131222172D01*
X187386962Y-131220877D01*
X186570002Y-131010132D01*
X186564525Y-131008585D01*
X185758048Y-130760561D01*
X185752648Y-130758763D01*
X184958446Y-130474011D01*
X184953134Y-130471968D01*
X184172811Y-130151065D01*
X184167606Y-130148783D01*
X183680889Y-129921982D01*
X183402836Y-129792414D01*
X183397734Y-129789893D01*
X182650112Y-129398803D01*
X182645131Y-129396050D01*
X181916240Y-128971066D01*
X181911391Y-128968087D01*
X181202793Y-128510120D01*
X181198085Y-128506922D01*
X180511224Y-128016908D01*
X180506668Y-128013497D01*
X180361281Y-127899358D01*
X179843026Y-127492490D01*
X179838639Y-127488881D01*
X179199593Y-126937963D01*
X179195369Y-126934149D01*
X178582286Y-126354499D01*
X178578241Y-126350495D01*
X178508624Y-126278344D01*
X177992367Y-125743288D01*
X177988537Y-125739131D01*
X177431166Y-125105708D01*
X177427542Y-125101395D01*
X176899782Y-124443013D01*
X176896349Y-124438522D01*
X176399389Y-123756664D01*
X176396148Y-123751996D01*
X176352188Y-123685468D01*
X175930988Y-123048038D01*
X175927970Y-123043232D01*
X175495626Y-122318709D01*
X175492843Y-122313794D01*
X175290704Y-121936741D01*
X197019500Y-121936741D01*
X197019500Y-122063259D01*
X197052245Y-122185466D01*
X197115504Y-122295034D01*
X197204966Y-122384496D01*
X197314534Y-122447755D01*
X197436741Y-122480500D01*
X197436743Y-122480500D01*
X197563257Y-122480500D01*
X197563259Y-122480500D01*
X197685466Y-122447755D01*
X197795034Y-122384496D01*
X197812711Y-122366819D01*
X197874034Y-122333334D01*
X197900392Y-122330500D01*
X199748409Y-122330500D01*
X199748411Y-122330500D01*
X199832468Y-122307977D01*
X199907832Y-122264466D01*
X203465176Y-118707120D01*
X203526497Y-118673637D01*
X203596189Y-118678621D01*
X203600307Y-118680242D01*
X203633682Y-118694066D01*
X203633687Y-118694068D01*
X203813318Y-118729799D01*
X203813321Y-118729800D01*
X203813323Y-118729800D01*
X203996479Y-118729800D01*
X203996480Y-118729799D01*
X204176113Y-118694068D01*
X204345325Y-118623978D01*
X204345325Y-118623977D01*
X204345327Y-118623977D01*
X204420958Y-118573441D01*
X204497613Y-118522223D01*
X204627123Y-118392713D01*
X204728878Y-118240425D01*
X204790340Y-118092042D01*
X204834179Y-118037640D01*
X204900473Y-118015575D01*
X204968173Y-118032854D01*
X205015784Y-118083991D01*
X205019461Y-118092043D01*
X205080923Y-118240426D01*
X205080923Y-118240427D01*
X205182674Y-118392708D01*
X205182680Y-118392716D01*
X205312184Y-118522220D01*
X205312192Y-118522226D01*
X205464473Y-118623977D01*
X205514034Y-118644506D01*
X205633688Y-118694068D01*
X205813319Y-118729799D01*
X205813322Y-118729800D01*
X206002570Y-118729800D01*
X206002570Y-118732446D01*
X206059919Y-118743264D01*
X206110676Y-118791280D01*
X206127417Y-118859114D01*
X206104826Y-118925231D01*
X206091216Y-118941385D01*
X201899421Y-123133181D01*
X201838098Y-123166666D01*
X201811740Y-123169500D01*
X197900392Y-123169500D01*
X197833353Y-123149815D01*
X197812711Y-123133181D01*
X197795035Y-123115505D01*
X197795034Y-123115504D01*
X197685466Y-123052245D01*
X197563259Y-123019500D01*
X197436741Y-123019500D01*
X197314534Y-123052245D01*
X197314531Y-123052246D01*
X197204964Y-123115505D01*
X197115505Y-123204964D01*
X197052246Y-123314531D01*
X197052245Y-123314534D01*
X197019500Y-123436741D01*
X197019500Y-123563259D01*
X197052245Y-123685466D01*
X197115504Y-123795034D01*
X197204966Y-123884496D01*
X197314534Y-123947755D01*
X197436741Y-123980500D01*
X197436743Y-123980500D01*
X197563257Y-123980500D01*
X197563259Y-123980500D01*
X197685466Y-123947755D01*
X197795034Y-123884496D01*
X197812711Y-123866819D01*
X197874034Y-123833334D01*
X197900392Y-123830500D01*
X202043509Y-123830500D01*
X202043511Y-123830500D01*
X202127568Y-123807977D01*
X202202932Y-123764466D01*
X207764466Y-118202932D01*
X207807977Y-118127568D01*
X207830501Y-118043511D01*
X207830501Y-117956489D01*
X207830501Y-117948894D01*
X207830500Y-117948876D01*
X207830500Y-111400392D01*
X207850185Y-111333353D01*
X207866819Y-111312711D01*
X207884496Y-111295034D01*
X207947755Y-111185466D01*
X207980500Y-111063259D01*
X207980500Y-110936741D01*
X207947755Y-110814534D01*
X207884496Y-110704966D01*
X207795034Y-110615504D01*
X207685466Y-110552245D01*
X207563259Y-110519500D01*
X207436741Y-110519500D01*
X207314534Y-110552245D01*
X207314531Y-110552246D01*
X207204964Y-110615505D01*
X207115505Y-110704964D01*
X207052246Y-110814531D01*
X207052245Y-110814534D01*
X207019500Y-110936741D01*
X207019500Y-111063259D01*
X207039063Y-111136267D01*
X207052245Y-111185465D01*
X207052246Y-111185468D01*
X207115505Y-111295035D01*
X207133181Y-111312711D01*
X207166666Y-111374034D01*
X207169500Y-111400392D01*
X207169500Y-117811740D01*
X207149815Y-117878779D01*
X207133185Y-117899416D01*
X207083726Y-117948876D01*
X207046286Y-117986316D01*
X206984962Y-118019800D01*
X206915271Y-118014816D01*
X206859337Y-117972944D01*
X206834921Y-117907479D01*
X206835057Y-117897669D01*
X206834701Y-117897669D01*
X206834701Y-117708420D01*
X206834700Y-117708418D01*
X206801975Y-117543900D01*
X206798969Y-117528787D01*
X206730156Y-117362658D01*
X206728878Y-117359572D01*
X206627127Y-117207291D01*
X206627121Y-117207283D01*
X206497617Y-117077779D01*
X206497609Y-117077773D01*
X206345328Y-116976022D01*
X206176114Y-116905932D01*
X206176106Y-116905930D01*
X205996481Y-116870200D01*
X205996478Y-116870200D01*
X205813324Y-116870200D01*
X205813321Y-116870200D01*
X205633695Y-116905930D01*
X205633687Y-116905932D01*
X205464473Y-116976022D01*
X205312192Y-117077773D01*
X205312184Y-117077779D01*
X205182680Y-117207283D01*
X205182674Y-117207291D01*
X205080923Y-117359572D01*
X205080923Y-117359573D01*
X205019461Y-117507956D01*
X204975620Y-117562359D01*
X204909326Y-117584424D01*
X204841626Y-117567145D01*
X204794016Y-117516007D01*
X204790339Y-117507957D01*
X204762139Y-117439874D01*
X204728879Y-117359576D01*
X204728877Y-117359572D01*
X204627126Y-117207291D01*
X204627120Y-117207283D01*
X204497616Y-117077779D01*
X204497608Y-117077773D01*
X204345327Y-116976022D01*
X204176113Y-116905932D01*
X204176105Y-116905930D01*
X203996480Y-116870200D01*
X203996477Y-116870200D01*
X203813323Y-116870200D01*
X203813320Y-116870200D01*
X203633694Y-116905930D01*
X203633686Y-116905932D01*
X203464472Y-116976022D01*
X203312191Y-117077773D01*
X203312183Y-117077779D01*
X203182679Y-117207283D01*
X203182673Y-117207291D01*
X203080922Y-117359572D01*
X203010832Y-117528786D01*
X203010830Y-117528794D01*
X202975100Y-117708418D01*
X202975100Y-117891581D01*
X203010830Y-118071205D01*
X203010832Y-118071213D01*
X203019460Y-118092044D01*
X203024657Y-118104589D01*
X203032126Y-118174059D01*
X203000851Y-118236538D01*
X202997777Y-118239723D01*
X199604321Y-121633181D01*
X199542998Y-121666666D01*
X199516640Y-121669500D01*
X197900392Y-121669500D01*
X197833353Y-121649815D01*
X197812711Y-121633181D01*
X197795035Y-121615505D01*
X197795034Y-121615504D01*
X197685466Y-121552245D01*
X197563259Y-121519500D01*
X197436741Y-121519500D01*
X197314534Y-121552245D01*
X197314531Y-121552246D01*
X197204964Y-121615505D01*
X197115505Y-121704964D01*
X197052246Y-121814531D01*
X197052245Y-121814534D01*
X197019500Y-121936741D01*
X175290704Y-121936741D01*
X175118488Y-121615505D01*
X175094168Y-121570140D01*
X175091595Y-121565064D01*
X174727496Y-120803966D01*
X174725158Y-120798777D01*
X174396352Y-120021745D01*
X174394255Y-120016454D01*
X174172769Y-119417893D01*
X174101450Y-119225154D01*
X174099603Y-119219787D01*
X174051199Y-119067898D01*
X173843408Y-118415860D01*
X173841821Y-118410454D01*
X173622780Y-117595601D01*
X173621443Y-117590131D01*
X173440022Y-116766083D01*
X173438937Y-116760557D01*
X173364040Y-116326320D01*
X176709500Y-116326320D01*
X176709500Y-117353679D01*
X176712312Y-117389414D01*
X176712313Y-117389420D01*
X176756755Y-117542387D01*
X176756756Y-117542390D01*
X176756757Y-117542392D01*
X176771396Y-117567145D01*
X176837845Y-117679505D01*
X176837852Y-117679514D01*
X176950485Y-117792147D01*
X176950494Y-117792154D01*
X176983612Y-117811740D01*
X177087608Y-117873243D01*
X177106663Y-117878779D01*
X177240579Y-117917686D01*
X177240582Y-117917686D01*
X177240584Y-117917687D01*
X177276328Y-117920500D01*
X177276336Y-117920500D01*
X178303664Y-117920500D01*
X178303672Y-117920500D01*
X178339416Y-117917687D01*
X178339418Y-117917686D01*
X178339420Y-117917686D01*
X178404779Y-117898697D01*
X178492392Y-117873243D01*
X178629509Y-117792152D01*
X178742152Y-117679509D01*
X178823243Y-117542392D01*
X178867687Y-117389416D01*
X178870500Y-117353672D01*
X178870500Y-116754963D01*
X180011500Y-116754963D01*
X180011500Y-116925036D01*
X180038106Y-117093019D01*
X180090658Y-117254761D01*
X180090660Y-117254764D01*
X180090661Y-117254768D01*
X180167874Y-117406305D01*
X180267841Y-117543898D01*
X180388102Y-117664159D01*
X180525695Y-117764126D01*
X180677232Y-117841339D01*
X180838982Y-117893894D01*
X181006963Y-117920500D01*
X181006964Y-117920500D01*
X181177036Y-117920500D01*
X181177037Y-117920500D01*
X181345018Y-117893894D01*
X181435140Y-117864611D01*
X181504978Y-117862617D01*
X181564811Y-117898697D01*
X181595640Y-117961398D01*
X181591387Y-118020860D01*
X181562106Y-118110978D01*
X181535500Y-118278963D01*
X181535500Y-118449036D01*
X181562106Y-118617019D01*
X181614658Y-118778761D01*
X181614660Y-118778764D01*
X181614661Y-118778768D01*
X181691874Y-118930305D01*
X181791841Y-119067898D01*
X181912102Y-119188159D01*
X182049695Y-119288126D01*
X182201232Y-119365339D01*
X182362982Y-119417894D01*
X182530963Y-119444500D01*
X182530964Y-119444500D01*
X182701036Y-119444500D01*
X182701037Y-119444500D01*
X182869018Y-119417894D01*
X183030768Y-119365339D01*
X183182305Y-119288126D01*
X183319898Y-119188159D01*
X183440159Y-119067898D01*
X183540126Y-118930305D01*
X183617339Y-118778768D01*
X183669894Y-118617018D01*
X183696500Y-118449037D01*
X183696500Y-118278963D01*
X183669894Y-118110982D01*
X183617339Y-117949232D01*
X183540126Y-117797695D01*
X183440159Y-117660102D01*
X183319898Y-117539841D01*
X183182305Y-117439874D01*
X183030768Y-117362661D01*
X183030764Y-117362660D01*
X183030761Y-117362658D01*
X182869019Y-117310106D01*
X182785027Y-117296803D01*
X182701037Y-117283500D01*
X182530963Y-117283500D01*
X182497366Y-117288821D01*
X182362978Y-117310106D01*
X182272860Y-117339387D01*
X182203019Y-117341382D01*
X182143186Y-117305301D01*
X182112359Y-117242600D01*
X182116611Y-117183140D01*
X182145894Y-117093018D01*
X182172500Y-116925037D01*
X182172500Y-116754963D01*
X182145894Y-116586982D01*
X182093339Y-116425232D01*
X182016126Y-116273695D01*
X181916159Y-116136102D01*
X181795898Y-116015841D01*
X181658305Y-115915874D01*
X181506768Y-115838661D01*
X181506764Y-115838660D01*
X181506761Y-115838658D01*
X181345019Y-115786106D01*
X181194797Y-115762313D01*
X181177037Y-115759500D01*
X181006963Y-115759500D01*
X180989203Y-115762313D01*
X180838980Y-115786106D01*
X180677238Y-115838658D01*
X180525694Y-115915874D01*
X180388099Y-116015843D01*
X180267843Y-116136099D01*
X180167874Y-116273694D01*
X180114786Y-116377885D01*
X180096113Y-116414533D01*
X180090658Y-116425238D01*
X180038106Y-116586980D01*
X180011500Y-116754963D01*
X178870500Y-116754963D01*
X178870500Y-116326328D01*
X178867687Y-116290584D01*
X178862780Y-116273695D01*
X178823244Y-116137612D01*
X178823243Y-116137609D01*
X178823243Y-116137608D01*
X178742152Y-116000491D01*
X178742150Y-116000489D01*
X178742147Y-116000485D01*
X178629514Y-115887852D01*
X178629505Y-115887845D01*
X178492390Y-115806756D01*
X178492387Y-115806755D01*
X178339420Y-115762313D01*
X178339414Y-115762312D01*
X178303679Y-115759500D01*
X178303672Y-115759500D01*
X177276328Y-115759500D01*
X177276320Y-115759500D01*
X177240585Y-115762312D01*
X177240579Y-115762313D01*
X177087612Y-115806755D01*
X177087609Y-115806756D01*
X176950494Y-115887845D01*
X176950485Y-115887852D01*
X176837852Y-116000485D01*
X176837845Y-116000494D01*
X176756756Y-116137609D01*
X176756755Y-116137612D01*
X176712313Y-116290579D01*
X176712312Y-116290585D01*
X176709500Y-116326320D01*
X173364040Y-116326320D01*
X173302304Y-115968385D01*
X173300500Y-115947309D01*
X173300500Y-112828031D01*
X188499500Y-112828031D01*
X188499500Y-112859852D01*
X188499500Y-113171969D01*
X188509751Y-113276054D01*
X188533210Y-113514249D01*
X188600308Y-113851572D01*
X188700150Y-114180706D01*
X188831770Y-114498464D01*
X188831772Y-114498469D01*
X188993893Y-114801775D01*
X188993904Y-114801793D01*
X189184975Y-115087751D01*
X189184985Y-115087765D01*
X189403176Y-115353632D01*
X189646367Y-115596823D01*
X189646372Y-115596827D01*
X189646373Y-115596828D01*
X189912240Y-115815019D01*
X190198213Y-116006100D01*
X190198222Y-116006105D01*
X190198224Y-116006106D01*
X190501530Y-116168227D01*
X190501532Y-116168227D01*
X190501538Y-116168231D01*
X190819295Y-116299850D01*
X191148422Y-116399690D01*
X191485750Y-116466789D01*
X191828031Y-116500500D01*
X191828034Y-116500500D01*
X192171966Y-116500500D01*
X192171969Y-116500500D01*
X192514250Y-116466789D01*
X192851578Y-116399690D01*
X193180705Y-116299850D01*
X193418566Y-116201324D01*
X193488032Y-116193856D01*
X193550512Y-116225131D01*
X193586164Y-116285220D01*
X193583671Y-116355045D01*
X193573404Y-116377885D01*
X193552245Y-116414533D01*
X193552245Y-116414534D01*
X193519500Y-116536741D01*
X193519500Y-116663259D01*
X193552245Y-116785466D01*
X193615504Y-116895034D01*
X193704966Y-116984496D01*
X193814534Y-117047755D01*
X193936741Y-117080500D01*
X193936743Y-117080500D01*
X194063257Y-117080500D01*
X194063259Y-117080500D01*
X194185466Y-117047755D01*
X194295034Y-116984496D01*
X194384496Y-116895034D01*
X194447755Y-116785466D01*
X194480500Y-116663259D01*
X194480500Y-116638260D01*
X194500185Y-116571221D01*
X194516819Y-116550579D01*
X203257819Y-107809579D01*
X203319142Y-107776094D01*
X203388834Y-107781078D01*
X203444767Y-107822950D01*
X203469184Y-107888414D01*
X203469500Y-107897260D01*
X203469500Y-111906384D01*
X203449815Y-111973423D01*
X203414391Y-112009486D01*
X203312187Y-112077776D01*
X203312183Y-112077779D01*
X203182679Y-112207283D01*
X203182673Y-112207291D01*
X203080922Y-112359572D01*
X203010832Y-112528786D01*
X203010830Y-112528794D01*
X202975100Y-112708418D01*
X202975100Y-112891581D01*
X203010830Y-113071205D01*
X203010832Y-113071213D01*
X203080922Y-113240427D01*
X203182673Y-113392708D01*
X203182679Y-113392716D01*
X203312183Y-113522220D01*
X203312191Y-113522226D01*
X203464472Y-113623977D01*
X203514033Y-113644506D01*
X203633687Y-113694068D01*
X203813318Y-113729799D01*
X203813321Y-113729800D01*
X203813323Y-113729800D01*
X203996479Y-113729800D01*
X203996480Y-113729799D01*
X204176113Y-113694068D01*
X204345325Y-113623978D01*
X204345325Y-113623977D01*
X204345327Y-113623977D01*
X204420958Y-113573441D01*
X204497613Y-113522223D01*
X204627123Y-113392713D01*
X204728878Y-113240425D01*
X204790340Y-113092042D01*
X204834179Y-113037640D01*
X204900473Y-113015575D01*
X204968173Y-113032854D01*
X205015784Y-113083991D01*
X205019461Y-113092043D01*
X205080923Y-113240426D01*
X205080923Y-113240427D01*
X205182674Y-113392708D01*
X205182680Y-113392716D01*
X205312184Y-113522220D01*
X205312192Y-113522226D01*
X205464473Y-113623977D01*
X205514034Y-113644506D01*
X205633688Y-113694068D01*
X205813319Y-113729799D01*
X205813322Y-113729800D01*
X205813324Y-113729800D01*
X205996480Y-113729800D01*
X205996481Y-113729799D01*
X206176114Y-113694068D01*
X206345326Y-113623978D01*
X206345326Y-113623977D01*
X206345328Y-113623977D01*
X206420959Y-113573441D01*
X206497614Y-113522223D01*
X206627124Y-113392713D01*
X206728879Y-113240425D01*
X206798969Y-113071213D01*
X206834701Y-112891577D01*
X206834701Y-112708423D01*
X206834701Y-112708420D01*
X206834700Y-112708418D01*
X206798970Y-112528794D01*
X206798969Y-112528787D01*
X206749407Y-112409133D01*
X206728878Y-112359572D01*
X206627127Y-112207291D01*
X206627121Y-112207283D01*
X206497617Y-112077779D01*
X206497613Y-112077776D01*
X206385609Y-112002937D01*
X206340804Y-111949325D01*
X206330500Y-111899835D01*
X206330500Y-90746407D01*
X206330501Y-90746394D01*
X206330501Y-90649385D01*
X206330501Y-90649383D01*
X206307977Y-90565326D01*
X206264466Y-90489962D01*
X200592735Y-84818231D01*
X200559250Y-84756908D01*
X200564234Y-84687216D01*
X200606106Y-84631283D01*
X200618406Y-84623169D01*
X200708207Y-84571323D01*
X200797669Y-84481861D01*
X200860928Y-84372293D01*
X200893673Y-84250086D01*
X200893673Y-84123568D01*
X200860928Y-84001361D01*
X200797669Y-83891793D01*
X200708207Y-83802331D01*
X200635161Y-83760158D01*
X200598638Y-83739071D01*
X200598634Y-83739070D01*
X200597388Y-83738736D01*
X200596271Y-83738091D01*
X200591135Y-83735964D01*
X200591415Y-83735287D01*
X200541810Y-83706645D01*
X200066819Y-83231654D01*
X200033334Y-83170331D01*
X200030500Y-83143973D01*
X200030500Y-82228031D01*
X201299500Y-82228031D01*
X201299500Y-82259852D01*
X201299500Y-82571969D01*
X201306925Y-82647361D01*
X201333210Y-82914249D01*
X201400308Y-83251572D01*
X201500150Y-83580706D01*
X201631770Y-83898464D01*
X201631772Y-83898469D01*
X201793893Y-84201775D01*
X201793904Y-84201793D01*
X201984975Y-84487751D01*
X201984985Y-84487765D01*
X202203176Y-84753632D01*
X202446367Y-84996823D01*
X202446372Y-84996827D01*
X202446373Y-84996828D01*
X202712240Y-85215019D01*
X202998213Y-85406100D01*
X202998222Y-85406105D01*
X202998224Y-85406106D01*
X203301530Y-85568227D01*
X203301532Y-85568227D01*
X203301538Y-85568231D01*
X203619295Y-85699850D01*
X203948422Y-85799690D01*
X204285750Y-85866789D01*
X204628031Y-85900500D01*
X204628034Y-85900500D01*
X204971966Y-85900500D01*
X204971969Y-85900500D01*
X205314250Y-85866789D01*
X205651578Y-85799690D01*
X205980705Y-85699850D01*
X206298462Y-85568231D01*
X206601787Y-85406100D01*
X206887760Y-85215019D01*
X207153627Y-84996828D01*
X207396828Y-84753627D01*
X207615019Y-84487760D01*
X207806100Y-84201787D01*
X207968231Y-83898462D01*
X208099850Y-83580705D01*
X208199690Y-83251578D01*
X208266789Y-82914250D01*
X208300500Y-82571969D01*
X208300500Y-82228031D01*
X208266789Y-81885750D01*
X208199690Y-81548422D01*
X208099850Y-81219295D01*
X207968231Y-80901538D01*
X207927777Y-80825855D01*
X207806106Y-80598224D01*
X207806105Y-80598222D01*
X207806100Y-80598213D01*
X207615019Y-80312240D01*
X207396828Y-80046373D01*
X207396827Y-80046372D01*
X207396823Y-80046367D01*
X207153632Y-79803176D01*
X206887765Y-79584985D01*
X206887764Y-79584984D01*
X206887760Y-79584981D01*
X206601787Y-79393900D01*
X206601782Y-79393897D01*
X206601775Y-79393893D01*
X206298469Y-79231772D01*
X206298464Y-79231770D01*
X205980706Y-79100150D01*
X205651572Y-79000308D01*
X205314248Y-78933210D01*
X205314249Y-78933210D01*
X205056456Y-78907821D01*
X204971969Y-78899500D01*
X204628031Y-78899500D01*
X204549966Y-78907188D01*
X204285750Y-78933210D01*
X203948427Y-79000308D01*
X203619293Y-79100150D01*
X203301535Y-79231770D01*
X203301530Y-79231772D01*
X202998224Y-79393893D01*
X202998206Y-79393904D01*
X202712248Y-79584975D01*
X202712234Y-79584985D01*
X202446367Y-79803176D01*
X202203176Y-80046367D01*
X201984985Y-80312234D01*
X201984975Y-80312248D01*
X201793904Y-80598206D01*
X201793893Y-80598224D01*
X201631772Y-80901530D01*
X201631770Y-80901535D01*
X201500150Y-81219293D01*
X201400308Y-81548427D01*
X201333210Y-81885750D01*
X201307188Y-82149966D01*
X201299500Y-82228031D01*
X200030500Y-82228031D01*
X200030500Y-80289679D01*
X200050185Y-80222640D01*
X200066814Y-80202003D01*
X201701999Y-78566817D01*
X201763322Y-78533333D01*
X201789680Y-78530499D01*
X203027775Y-78530499D01*
X203027776Y-78530499D01*
X203080428Y-78520027D01*
X203140133Y-78480133D01*
X203141220Y-78478507D01*
X203161225Y-78448567D01*
X203180027Y-78420428D01*
X203190500Y-78367777D01*
X203190499Y-76632224D01*
X203180027Y-76579572D01*
X203180025Y-76579569D01*
X203180025Y-76579568D01*
X203140132Y-76519865D01*
X203080430Y-76479974D01*
X203080423Y-76479971D01*
X203027780Y-76469500D01*
X201292225Y-76469500D01*
X201239571Y-76479973D01*
X201239568Y-76479974D01*
X201179865Y-76519867D01*
X201139974Y-76579569D01*
X201139971Y-76579576D01*
X201129500Y-76632218D01*
X201129500Y-77870318D01*
X201109815Y-77937357D01*
X201093181Y-77957999D01*
X199342181Y-79708999D01*
X199280858Y-79742484D01*
X199211166Y-79737500D01*
X199155233Y-79695628D01*
X199130816Y-79630164D01*
X199130500Y-79621318D01*
X199130500Y-78598226D01*
X199150185Y-78531187D01*
X199202989Y-78485432D01*
X199272147Y-78475488D01*
X199301947Y-78483663D01*
X199319414Y-78490898D01*
X199518500Y-78530499D01*
X199518503Y-78530500D01*
X199518505Y-78530500D01*
X199721497Y-78530500D01*
X199721498Y-78530499D01*
X199920586Y-78490898D01*
X200108125Y-78413217D01*
X200276905Y-78300442D01*
X200420442Y-78156905D01*
X200533217Y-77988125D01*
X200610898Y-77800586D01*
X200650500Y-77601495D01*
X200650500Y-77398505D01*
X200650500Y-77398502D01*
X200650499Y-77398500D01*
X200632353Y-77307276D01*
X200610898Y-77199414D01*
X200552305Y-77057957D01*
X200533220Y-77011881D01*
X200533213Y-77011868D01*
X200420442Y-76843095D01*
X200420439Y-76843091D01*
X200276908Y-76699560D01*
X200276904Y-76699557D01*
X200108131Y-76586786D01*
X200108118Y-76586779D01*
X199920590Y-76509103D01*
X199920578Y-76509100D01*
X199721498Y-76469500D01*
X199721495Y-76469500D01*
X199518505Y-76469500D01*
X199518502Y-76469500D01*
X199319421Y-76509100D01*
X199319409Y-76509103D01*
X199131881Y-76586779D01*
X199131868Y-76586786D01*
X198963095Y-76699557D01*
X198963091Y-76699560D01*
X198819560Y-76843091D01*
X198819557Y-76843095D01*
X198706786Y-77011868D01*
X198706779Y-77011881D01*
X198629103Y-77199409D01*
X198629100Y-77199421D01*
X198589500Y-77398500D01*
X198589500Y-77601499D01*
X198629099Y-77800577D01*
X198629100Y-77800578D01*
X198629102Y-77800586D01*
X198662685Y-77881664D01*
X198664821Y-77901538D01*
X198671807Y-77920265D01*
X198668479Y-77935563D01*
X198670153Y-77951132D01*
X198661205Y-77969006D01*
X198656957Y-77988538D01*
X198640266Y-78010835D01*
X198638877Y-78013611D01*
X198635807Y-78016793D01*
X198597070Y-78055532D01*
X198597068Y-78055534D01*
X198535532Y-78117069D01*
X198492023Y-78192431D01*
X198492023Y-78192432D01*
X198469500Y-78276489D01*
X198469500Y-83102740D01*
X198449815Y-83169779D01*
X198397011Y-83215534D01*
X198327853Y-83225478D01*
X198264297Y-83196453D01*
X198257819Y-83190421D01*
X197446819Y-82379421D01*
X197413334Y-82318098D01*
X197410500Y-82291740D01*
X197410500Y-78561361D01*
X197430185Y-78494322D01*
X197482989Y-78448567D01*
X197487048Y-78446800D01*
X197568119Y-78413220D01*
X197568122Y-78413218D01*
X197568125Y-78413217D01*
X197736905Y-78300442D01*
X197880442Y-78156905D01*
X197993217Y-77988125D01*
X198070898Y-77800586D01*
X198110500Y-77601495D01*
X198110500Y-77398505D01*
X198110500Y-77398502D01*
X198110499Y-77398500D01*
X198092353Y-77307276D01*
X198070898Y-77199414D01*
X198012305Y-77057957D01*
X197993220Y-77011881D01*
X197993213Y-77011868D01*
X197880442Y-76843095D01*
X197880439Y-76843091D01*
X197736908Y-76699560D01*
X197736904Y-76699557D01*
X197568131Y-76586786D01*
X197568118Y-76586779D01*
X197380590Y-76509103D01*
X197380578Y-76509100D01*
X197181498Y-76469500D01*
X197181495Y-76469500D01*
X196978505Y-76469500D01*
X196978502Y-76469500D01*
X196779421Y-76509100D01*
X196779409Y-76509103D01*
X196591881Y-76586779D01*
X196591868Y-76586786D01*
X196423095Y-76699557D01*
X196423091Y-76699560D01*
X196279560Y-76843091D01*
X196279557Y-76843095D01*
X196166786Y-77011868D01*
X196166779Y-77011881D01*
X196089103Y-77199409D01*
X196089100Y-77199421D01*
X196049500Y-77398500D01*
X196049500Y-77601499D01*
X196089100Y-77800578D01*
X196089103Y-77800590D01*
X196166779Y-77988118D01*
X196166786Y-77988131D01*
X196279557Y-78156904D01*
X196279560Y-78156908D01*
X196423091Y-78300439D01*
X196423095Y-78300442D01*
X196591868Y-78413213D01*
X196591880Y-78413220D01*
X196672952Y-78446800D01*
X196727356Y-78490640D01*
X196749421Y-78556934D01*
X196749500Y-78561361D01*
X196749500Y-82436489D01*
X196749500Y-82523511D01*
X196762485Y-82571969D01*
X196772023Y-82607567D01*
X196772023Y-82607568D01*
X196815533Y-82682930D01*
X196815535Y-82682933D01*
X203433181Y-89300579D01*
X203466666Y-89361902D01*
X203469500Y-89388260D01*
X203469500Y-105901458D01*
X203449815Y-105968497D01*
X203397011Y-106014252D01*
X203327853Y-106024196D01*
X203283500Y-106008845D01*
X203185468Y-105952246D01*
X203185467Y-105952245D01*
X203185466Y-105952245D01*
X203063259Y-105919500D01*
X202936741Y-105919500D01*
X202814534Y-105952245D01*
X202814531Y-105952246D01*
X202704964Y-106015505D01*
X202615505Y-106104964D01*
X202552246Y-106214531D01*
X202552245Y-106214534D01*
X202519500Y-106336741D01*
X202519500Y-106463259D01*
X202536300Y-106525956D01*
X202552245Y-106585465D01*
X202552246Y-106585468D01*
X202615505Y-106695035D01*
X202633181Y-106712711D01*
X202666666Y-106774034D01*
X202669500Y-106800392D01*
X202669500Y-107411740D01*
X202649815Y-107478779D01*
X202633181Y-107499421D01*
X195224334Y-114908267D01*
X195163011Y-114941752D01*
X195093319Y-114936768D01*
X195037386Y-114894896D01*
X195012969Y-114829432D01*
X195027294Y-114762135D01*
X195168231Y-114498462D01*
X195299850Y-114180705D01*
X195399690Y-113851578D01*
X195466789Y-113514250D01*
X195500500Y-113171969D01*
X195500500Y-112828031D01*
X195466789Y-112485750D01*
X195399690Y-112148422D01*
X195299850Y-111819295D01*
X195168231Y-111501538D01*
X195078929Y-111334467D01*
X195006106Y-111198224D01*
X195006105Y-111198222D01*
X195006100Y-111198213D01*
X194815019Y-110912240D01*
X194596828Y-110646373D01*
X194596827Y-110646372D01*
X194596823Y-110646367D01*
X194353632Y-110403176D01*
X194087765Y-110184985D01*
X194087764Y-110184984D01*
X194087760Y-110184981D01*
X193801787Y-109993900D01*
X193801782Y-109993897D01*
X193801775Y-109993893D01*
X193498469Y-109831772D01*
X193498464Y-109831770D01*
X193180706Y-109700150D01*
X192851572Y-109600308D01*
X192514248Y-109533210D01*
X192514249Y-109533210D01*
X192256456Y-109507821D01*
X192171969Y-109499500D01*
X191828031Y-109499500D01*
X191749966Y-109507188D01*
X191485750Y-109533210D01*
X191148427Y-109600308D01*
X190819293Y-109700150D01*
X190501535Y-109831770D01*
X190501530Y-109831772D01*
X190198224Y-109993893D01*
X190198206Y-109993904D01*
X189912248Y-110184975D01*
X189912234Y-110184985D01*
X189646367Y-110403176D01*
X189403176Y-110646367D01*
X189184985Y-110912234D01*
X189184975Y-110912248D01*
X188993904Y-111198206D01*
X188993893Y-111198224D01*
X188831772Y-111501530D01*
X188831770Y-111501535D01*
X188700150Y-111819293D01*
X188600308Y-112148427D01*
X188533210Y-112485750D01*
X188511280Y-112708420D01*
X188499500Y-112828031D01*
X173300500Y-112828031D01*
X173300500Y-106936741D01*
X191919500Y-106936741D01*
X191919500Y-107063259D01*
X191952245Y-107185466D01*
X192015504Y-107295034D01*
X192104966Y-107384496D01*
X192214534Y-107447755D01*
X192336741Y-107480500D01*
X192361740Y-107480500D01*
X192428779Y-107500185D01*
X192449421Y-107516819D01*
X195105582Y-110172980D01*
X195139067Y-110234303D01*
X195134083Y-110303995D01*
X195125288Y-110322661D01*
X195072246Y-110414531D01*
X195072245Y-110414534D01*
X195039500Y-110536741D01*
X195039500Y-110663259D01*
X195072245Y-110785466D01*
X195135504Y-110895034D01*
X195224966Y-110984496D01*
X195334534Y-111047755D01*
X195456741Y-111080500D01*
X195456743Y-111080500D01*
X195583257Y-111080500D01*
X195583259Y-111080500D01*
X195705466Y-111047755D01*
X195815034Y-110984496D01*
X195904496Y-110895034D01*
X195967755Y-110785466D01*
X196000500Y-110663259D01*
X196000500Y-110536741D01*
X195967755Y-110414534D01*
X195904496Y-110304966D01*
X195847420Y-110247890D01*
X195834034Y-110223377D01*
X195817863Y-110200598D01*
X195816212Y-110190737D01*
X195813935Y-110186567D01*
X195811233Y-110165933D01*
X195811101Y-110163076D01*
X195811101Y-110037090D01*
X195804066Y-110010836D01*
X195803447Y-109997434D01*
X195808677Y-109976005D01*
X195809202Y-109953956D01*
X195816800Y-109942728D01*
X195820016Y-109929557D01*
X195836001Y-109914358D01*
X195848364Y-109896092D01*
X195863327Y-109888377D01*
X195870652Y-109881414D01*
X195880482Y-109879533D01*
X195895219Y-109871936D01*
X195985466Y-109847755D01*
X196095034Y-109784496D01*
X196184496Y-109695034D01*
X196247755Y-109585466D01*
X196280500Y-109463259D01*
X196280500Y-109336741D01*
X196247755Y-109214534D01*
X196184496Y-109104966D01*
X196095034Y-109015504D01*
X195985466Y-108952245D01*
X195863259Y-108919500D01*
X195863258Y-108919500D01*
X195838260Y-108919500D01*
X195771221Y-108899815D01*
X195750579Y-108883181D01*
X193366819Y-106499421D01*
X193333334Y-106438098D01*
X193330500Y-106411740D01*
X193330500Y-105800392D01*
X193350185Y-105733353D01*
X193366819Y-105712711D01*
X193384496Y-105695034D01*
X193447755Y-105585466D01*
X193480500Y-105463259D01*
X193480500Y-105336741D01*
X193447755Y-105214534D01*
X193384496Y-105104966D01*
X193295034Y-105015504D01*
X193185466Y-104952245D01*
X193063259Y-104919500D01*
X192936741Y-104919500D01*
X192814534Y-104952245D01*
X192814531Y-104952246D01*
X192704964Y-105015505D01*
X192615505Y-105104964D01*
X192552246Y-105214531D01*
X192552245Y-105214534D01*
X192519500Y-105336741D01*
X192519500Y-105463258D01*
X192552245Y-105585465D01*
X192552246Y-105585468D01*
X192615505Y-105695035D01*
X192633181Y-105712711D01*
X192666666Y-105774034D01*
X192669500Y-105800392D01*
X192669500Y-106413162D01*
X192649815Y-106480201D01*
X192597011Y-106525956D01*
X192527853Y-106535900D01*
X192513407Y-106532937D01*
X192487353Y-106525956D01*
X192463259Y-106519500D01*
X192336741Y-106519500D01*
X192214534Y-106552245D01*
X192214531Y-106552246D01*
X192104964Y-106615505D01*
X192015505Y-106704964D01*
X191952246Y-106814531D01*
X191952245Y-106814534D01*
X191919500Y-106936741D01*
X173300500Y-106936741D01*
X173300500Y-100505141D01*
X189744499Y-100505141D01*
X189744499Y-100631659D01*
X189777244Y-100753866D01*
X189840503Y-100863434D01*
X189929965Y-100952896D01*
X190039533Y-101016155D01*
X190161740Y-101048900D01*
X190161742Y-101048900D01*
X190288256Y-101048900D01*
X190288258Y-101048900D01*
X190410465Y-101016155D01*
X190520033Y-100952896D01*
X190537710Y-100935219D01*
X190599033Y-100901734D01*
X190625391Y-100898900D01*
X193875109Y-100898900D01*
X193875111Y-100898900D01*
X193959168Y-100876377D01*
X194034532Y-100832866D01*
X195100579Y-99766819D01*
X195161902Y-99733334D01*
X195188260Y-99730500D01*
X195799608Y-99730500D01*
X195866647Y-99750185D01*
X195887289Y-99766819D01*
X195904966Y-99784496D01*
X196014534Y-99847755D01*
X196136741Y-99880500D01*
X196136743Y-99880500D01*
X196263257Y-99880500D01*
X196263259Y-99880500D01*
X196385466Y-99847755D01*
X196495034Y-99784496D01*
X196584496Y-99695034D01*
X196647755Y-99585466D01*
X196680500Y-99463259D01*
X196680500Y-99336741D01*
X196647755Y-99214534D01*
X196584496Y-99104966D01*
X196495034Y-99015504D01*
X196385466Y-98952245D01*
X196263259Y-98919500D01*
X196136741Y-98919500D01*
X196014534Y-98952245D01*
X196014531Y-98952246D01*
X195904964Y-99015505D01*
X195887289Y-99033181D01*
X195825966Y-99066666D01*
X195799608Y-99069500D01*
X194956489Y-99069500D01*
X194872429Y-99092023D01*
X194797068Y-99135534D01*
X194797065Y-99135536D01*
X193731021Y-100201581D01*
X193669698Y-100235066D01*
X193643340Y-100237900D01*
X190625391Y-100237900D01*
X190558352Y-100218215D01*
X190537710Y-100201581D01*
X190520034Y-100183905D01*
X190520033Y-100183904D01*
X190410465Y-100120645D01*
X190288258Y-100087900D01*
X190161740Y-100087900D01*
X190039533Y-100120645D01*
X190039530Y-100120646D01*
X189929963Y-100183905D01*
X189840504Y-100273364D01*
X189777245Y-100382931D01*
X189777244Y-100382934D01*
X189744499Y-100505141D01*
X173300500Y-100505141D01*
X173300500Y-99393141D01*
X185063100Y-99393141D01*
X185063100Y-99519659D01*
X185095845Y-99641866D01*
X185159104Y-99751434D01*
X185248566Y-99840896D01*
X185358134Y-99904155D01*
X185480341Y-99936900D01*
X185480343Y-99936900D01*
X185606857Y-99936900D01*
X185606859Y-99936900D01*
X185729066Y-99904155D01*
X185838634Y-99840896D01*
X185928096Y-99751434D01*
X185991355Y-99641866D01*
X186024100Y-99519659D01*
X186024100Y-99494660D01*
X186043785Y-99427621D01*
X186060419Y-99406979D01*
X188730657Y-96736741D01*
X189719500Y-96736741D01*
X189719500Y-96863259D01*
X189752245Y-96985466D01*
X189815504Y-97095034D01*
X189904966Y-97184496D01*
X190014534Y-97247755D01*
X190136741Y-97280500D01*
X190136743Y-97280500D01*
X190263257Y-97280500D01*
X190263259Y-97280500D01*
X190385466Y-97247755D01*
X190495034Y-97184496D01*
X190584496Y-97095034D01*
X190647755Y-96985466D01*
X190680500Y-96863259D01*
X190680500Y-96736741D01*
X190994499Y-96736741D01*
X190994499Y-96863259D01*
X191027244Y-96985466D01*
X191090503Y-97095034D01*
X191179965Y-97184496D01*
X191289533Y-97247755D01*
X191411740Y-97280500D01*
X191411742Y-97280500D01*
X191538256Y-97280500D01*
X191538258Y-97280500D01*
X191660465Y-97247755D01*
X191770033Y-97184496D01*
X191859495Y-97095034D01*
X191922754Y-96985466D01*
X191955499Y-96863259D01*
X191955499Y-96736741D01*
X191922754Y-96614534D01*
X191859495Y-96504966D01*
X191841818Y-96487289D01*
X191808333Y-96425966D01*
X191805499Y-96399608D01*
X191805499Y-92407780D01*
X191825184Y-92340741D01*
X191867501Y-92300392D01*
X191876072Y-92295443D01*
X191895034Y-92284496D01*
X191984496Y-92195034D01*
X192047755Y-92085466D01*
X192080500Y-91963259D01*
X192080500Y-91836741D01*
X192047755Y-91714534D01*
X191984496Y-91604966D01*
X191895034Y-91515504D01*
X191785466Y-91452245D01*
X191663259Y-91419500D01*
X191536741Y-91419500D01*
X191414534Y-91452245D01*
X191414531Y-91452246D01*
X191304964Y-91515505D01*
X191215505Y-91604964D01*
X191152246Y-91714531D01*
X191152245Y-91714534D01*
X191119500Y-91836741D01*
X191119500Y-91963258D01*
X191140274Y-92040788D01*
X191144499Y-92072881D01*
X191144499Y-96399608D01*
X191124814Y-96466647D01*
X191108180Y-96487289D01*
X191090504Y-96504964D01*
X191027245Y-96614531D01*
X191027244Y-96614534D01*
X190994499Y-96736741D01*
X190680500Y-96736741D01*
X190647755Y-96614534D01*
X190584496Y-96504966D01*
X190566819Y-96487289D01*
X190533334Y-96425966D01*
X190530500Y-96399608D01*
X190530500Y-86293346D01*
X190550185Y-86226307D01*
X190588693Y-86189589D01*
X190588583Y-86189446D01*
X190589919Y-86188420D01*
X190592503Y-86185957D01*
X190595034Y-86184496D01*
X190684496Y-86095034D01*
X190747755Y-85985466D01*
X190780500Y-85863259D01*
X190780500Y-85736741D01*
X190747755Y-85614534D01*
X190684496Y-85504966D01*
X190595034Y-85415504D01*
X190485466Y-85352245D01*
X190363259Y-85319500D01*
X190236741Y-85319500D01*
X190114534Y-85352245D01*
X190114531Y-85352246D01*
X190004964Y-85415505D01*
X189915505Y-85504964D01*
X189852246Y-85614531D01*
X189852245Y-85614534D01*
X189819500Y-85736741D01*
X189819500Y-85863259D01*
X189852245Y-85985466D01*
X189852884Y-85986572D01*
X189853215Y-85987810D01*
X189855357Y-85992980D01*
X189854676Y-85993261D01*
X189869500Y-86048578D01*
X189869500Y-96399608D01*
X189849815Y-96466647D01*
X189833181Y-96487289D01*
X189815505Y-96504964D01*
X189752246Y-96614531D01*
X189752245Y-96614534D01*
X189719500Y-96736741D01*
X188730657Y-96736741D01*
X188826465Y-96640933D01*
X188852867Y-96614531D01*
X189064466Y-96402932D01*
X189107977Y-96327568D01*
X189130500Y-96243511D01*
X189130500Y-96156489D01*
X189130500Y-92300392D01*
X189150185Y-92233353D01*
X189166819Y-92212711D01*
X189184496Y-92195034D01*
X189247755Y-92085466D01*
X189280500Y-91963259D01*
X189280500Y-91836741D01*
X189247755Y-91714534D01*
X189184496Y-91604966D01*
X189095034Y-91515504D01*
X188985466Y-91452245D01*
X188863259Y-91419500D01*
X188736741Y-91419500D01*
X188614534Y-91452245D01*
X188614531Y-91452246D01*
X188504964Y-91515505D01*
X188415505Y-91604964D01*
X188352246Y-91714531D01*
X188352245Y-91714534D01*
X188319500Y-91836741D01*
X188319500Y-91963258D01*
X188352245Y-92085465D01*
X188352246Y-92085468D01*
X188415505Y-92195035D01*
X188433181Y-92212711D01*
X188466666Y-92274034D01*
X188469500Y-92300392D01*
X188469500Y-96011740D01*
X188449815Y-96078779D01*
X188433181Y-96099421D01*
X185593021Y-98939581D01*
X185531698Y-98973066D01*
X185505340Y-98975900D01*
X185480341Y-98975900D01*
X185358134Y-99008645D01*
X185358131Y-99008646D01*
X185248564Y-99071905D01*
X185159105Y-99161364D01*
X185095846Y-99270931D01*
X185095845Y-99270934D01*
X185063100Y-99393141D01*
X173300500Y-99393141D01*
X173300500Y-97736741D01*
X179919500Y-97736741D01*
X179919500Y-97863259D01*
X179952245Y-97985466D01*
X180015504Y-98095034D01*
X180104966Y-98184496D01*
X180214534Y-98247755D01*
X180336741Y-98280500D01*
X180336743Y-98280500D01*
X180463257Y-98280500D01*
X180463259Y-98280500D01*
X180585466Y-98247755D01*
X180695034Y-98184496D01*
X180784496Y-98095034D01*
X180847755Y-97985466D01*
X180880500Y-97863259D01*
X180880500Y-97838260D01*
X180900185Y-97771221D01*
X180916819Y-97750579D01*
X182267790Y-96399608D01*
X183664466Y-95002932D01*
X183707977Y-94927568D01*
X183730501Y-94843511D01*
X183730501Y-94756489D01*
X183730501Y-94748894D01*
X183730500Y-94748876D01*
X183730500Y-85200392D01*
X183750185Y-85133353D01*
X183766819Y-85112711D01*
X183784496Y-85095034D01*
X183847755Y-84985466D01*
X183880500Y-84863259D01*
X183880500Y-84736741D01*
X183847755Y-84614534D01*
X183784496Y-84504966D01*
X183695034Y-84415504D01*
X183585466Y-84352245D01*
X183463259Y-84319500D01*
X183336741Y-84319500D01*
X183214534Y-84352245D01*
X183214531Y-84352246D01*
X183104964Y-84415505D01*
X183015505Y-84504964D01*
X182952246Y-84614531D01*
X182952245Y-84614534D01*
X182919500Y-84736741D01*
X182919500Y-84863259D01*
X182944586Y-84956880D01*
X182952245Y-84985465D01*
X182952246Y-84985468D01*
X183015505Y-85095035D01*
X183033181Y-85112711D01*
X183066666Y-85174034D01*
X183069500Y-85200392D01*
X183069500Y-94611740D01*
X183049815Y-94678779D01*
X183033181Y-94699421D01*
X180449421Y-97283181D01*
X180388098Y-97316666D01*
X180361740Y-97319500D01*
X180336741Y-97319500D01*
X180214534Y-97352245D01*
X180214531Y-97352246D01*
X180104964Y-97415505D01*
X180015505Y-97504964D01*
X179952246Y-97614531D01*
X179952245Y-97614534D01*
X179919500Y-97736741D01*
X173300500Y-97736741D01*
X173300500Y-86401392D01*
X173300501Y-86400882D01*
X173300593Y-86378513D01*
X173300665Y-86374780D01*
X173303257Y-86299090D01*
X173307797Y-86166486D01*
X173308114Y-86160921D01*
X173325981Y-85936956D01*
X173326471Y-85932051D01*
X173358590Y-85664532D01*
X173359191Y-85660189D01*
X173366326Y-85614534D01*
X173404386Y-85370960D01*
X173405057Y-85367078D01*
X173436565Y-85200392D01*
X173467427Y-85037116D01*
X173468139Y-85033631D01*
X173476206Y-84996823D01*
X173544868Y-84683524D01*
X173545586Y-84680437D01*
X173640471Y-84296376D01*
X173641195Y-84293595D01*
X173750920Y-83892098D01*
X173751654Y-83889533D01*
X173878393Y-83464418D01*
X173879183Y-83461871D01*
X173946639Y-83252383D01*
X174020486Y-83023042D01*
X174021294Y-83020621D01*
X174058001Y-82914250D01*
X174176871Y-82569782D01*
X174177668Y-82567546D01*
X174192198Y-82528034D01*
X174699500Y-82528034D01*
X174699500Y-82871965D01*
X174733210Y-83214249D01*
X174800308Y-83551572D01*
X174900150Y-83880706D01*
X175031770Y-84198464D01*
X175031772Y-84198469D01*
X175193893Y-84501775D01*
X175193904Y-84501793D01*
X175384975Y-84787751D01*
X175384985Y-84787765D01*
X175603176Y-85053632D01*
X175846367Y-85296823D01*
X175846372Y-85296827D01*
X175846373Y-85296828D01*
X176112240Y-85515019D01*
X176398213Y-85706100D01*
X176398222Y-85706105D01*
X176398224Y-85706106D01*
X176701530Y-85868227D01*
X176701532Y-85868227D01*
X176701538Y-85868231D01*
X177019295Y-85999850D01*
X177348422Y-86099690D01*
X177685750Y-86166789D01*
X178028031Y-86200500D01*
X178028034Y-86200500D01*
X178371966Y-86200500D01*
X178371969Y-86200500D01*
X178714250Y-86166789D01*
X179051578Y-86099690D01*
X179380705Y-85999850D01*
X179698462Y-85868231D01*
X180001787Y-85706100D01*
X180287760Y-85515019D01*
X180553627Y-85296828D01*
X180796828Y-85053627D01*
X181015019Y-84787760D01*
X181206100Y-84501787D01*
X181368231Y-84198462D01*
X181499850Y-83880705D01*
X181599690Y-83551578D01*
X181666789Y-83214250D01*
X181700500Y-82871969D01*
X181700500Y-82528031D01*
X181666789Y-82185750D01*
X181599690Y-81848422D01*
X181499850Y-81519295D01*
X181368231Y-81201538D01*
X181278929Y-81034467D01*
X181206106Y-80898224D01*
X181206105Y-80898222D01*
X181206100Y-80898213D01*
X181015019Y-80612240D01*
X180796828Y-80346373D01*
X180796827Y-80346372D01*
X180796823Y-80346367D01*
X180553632Y-80103176D01*
X180287765Y-79884985D01*
X180287764Y-79884984D01*
X180287760Y-79884981D01*
X180001787Y-79693900D01*
X180001782Y-79693897D01*
X180001775Y-79693893D01*
X179698469Y-79531772D01*
X179698464Y-79531770D01*
X179380706Y-79400150D01*
X179051572Y-79300308D01*
X178714248Y-79233210D01*
X178714249Y-79233210D01*
X178456456Y-79207821D01*
X178371969Y-79199500D01*
X178028031Y-79199500D01*
X177949966Y-79207188D01*
X177685750Y-79233210D01*
X177348427Y-79300308D01*
X177019293Y-79400150D01*
X176701535Y-79531770D01*
X176701530Y-79531772D01*
X176398224Y-79693893D01*
X176398206Y-79693904D01*
X176112248Y-79884975D01*
X176112234Y-79884985D01*
X175846367Y-80103176D01*
X175603176Y-80346367D01*
X175384985Y-80612234D01*
X175384975Y-80612248D01*
X175193904Y-80898206D01*
X175193893Y-80898224D01*
X175031772Y-81201530D01*
X175031770Y-81201535D01*
X174900150Y-81519293D01*
X174800308Y-81848427D01*
X174733210Y-82185750D01*
X174716335Y-82357094D01*
X174699946Y-82523510D01*
X174699500Y-82528034D01*
X174192198Y-82528034D01*
X174345940Y-82109949D01*
X174347215Y-82106633D01*
X174720330Y-81176793D01*
X174722128Y-81172546D01*
X175130302Y-80257603D01*
X175132269Y-80253411D01*
X175565909Y-79372901D01*
X175568092Y-79368678D01*
X176017551Y-78539002D01*
X176019993Y-78534703D01*
X176477121Y-77766742D01*
X176479901Y-77762292D01*
X176718050Y-77398500D01*
X183349500Y-77398500D01*
X183349500Y-77601499D01*
X183389100Y-77800578D01*
X183389103Y-77800590D01*
X183466779Y-77988118D01*
X183466786Y-77988131D01*
X183579557Y-78156904D01*
X183579560Y-78156908D01*
X183723091Y-78300439D01*
X183723095Y-78300442D01*
X183891868Y-78413213D01*
X183891881Y-78413220D01*
X184053425Y-78480133D01*
X184079414Y-78490898D01*
X184278500Y-78530499D01*
X184278503Y-78530500D01*
X184278505Y-78530500D01*
X184481497Y-78530500D01*
X184481498Y-78530499D01*
X184680586Y-78490898D01*
X184868125Y-78413217D01*
X185036905Y-78300442D01*
X185180442Y-78156905D01*
X185293217Y-77988125D01*
X185370898Y-77800586D01*
X185410500Y-77601495D01*
X185410500Y-77398505D01*
X185410500Y-77398502D01*
X185410499Y-77398500D01*
X185889500Y-77398500D01*
X185889500Y-77601499D01*
X185929100Y-77800578D01*
X185929103Y-77800590D01*
X186006779Y-77988118D01*
X186006786Y-77988131D01*
X186119557Y-78156904D01*
X186119560Y-78156908D01*
X186263091Y-78300439D01*
X186263095Y-78300442D01*
X186431868Y-78413213D01*
X186431881Y-78413220D01*
X186593425Y-78480133D01*
X186619414Y-78490898D01*
X186818500Y-78530499D01*
X186818503Y-78530500D01*
X186818505Y-78530500D01*
X187021497Y-78530500D01*
X187021498Y-78530499D01*
X187220586Y-78490898D01*
X187408125Y-78413217D01*
X187576905Y-78300442D01*
X187720442Y-78156905D01*
X187833217Y-77988125D01*
X187910898Y-77800586D01*
X187950500Y-77601495D01*
X187950500Y-77398505D01*
X187950500Y-77398502D01*
X187950499Y-77398500D01*
X190969500Y-77398500D01*
X190969500Y-77601499D01*
X191009100Y-77800578D01*
X191009103Y-77800590D01*
X191086779Y-77988118D01*
X191086786Y-77988131D01*
X191199557Y-78156904D01*
X191199560Y-78156908D01*
X191343091Y-78300439D01*
X191343095Y-78300442D01*
X191511868Y-78413213D01*
X191511881Y-78413220D01*
X191673425Y-78480133D01*
X191699414Y-78490898D01*
X191898500Y-78530499D01*
X191898503Y-78530500D01*
X191898505Y-78530500D01*
X192101497Y-78530500D01*
X192101498Y-78530499D01*
X192300586Y-78490898D01*
X192488125Y-78413217D01*
X192656905Y-78300442D01*
X192800442Y-78156905D01*
X192913217Y-77988125D01*
X192990898Y-77800586D01*
X193030500Y-77601495D01*
X193030500Y-77398505D01*
X193030500Y-77398502D01*
X193030499Y-77398500D01*
X193509500Y-77398500D01*
X193509500Y-77601499D01*
X193549100Y-77800578D01*
X193549103Y-77800590D01*
X193626779Y-77988118D01*
X193626786Y-77988131D01*
X193739557Y-78156904D01*
X193739560Y-78156908D01*
X193883091Y-78300439D01*
X193883095Y-78300442D01*
X194051868Y-78413213D01*
X194051881Y-78413220D01*
X194213425Y-78480133D01*
X194239414Y-78490898D01*
X194438500Y-78530499D01*
X194438503Y-78530500D01*
X194438505Y-78530500D01*
X194641497Y-78530500D01*
X194641498Y-78530499D01*
X194840586Y-78490898D01*
X195028125Y-78413217D01*
X195196905Y-78300442D01*
X195340442Y-78156905D01*
X195453217Y-77988125D01*
X195530898Y-77800586D01*
X195570500Y-77601495D01*
X195570500Y-77398505D01*
X195570500Y-77398502D01*
X195570499Y-77398500D01*
X195552353Y-77307276D01*
X195530898Y-77199414D01*
X195472305Y-77057957D01*
X195453220Y-77011881D01*
X195453213Y-77011868D01*
X195340442Y-76843095D01*
X195340439Y-76843091D01*
X195196908Y-76699560D01*
X195196904Y-76699557D01*
X195028131Y-76586786D01*
X195028118Y-76586779D01*
X194840590Y-76509103D01*
X194840578Y-76509100D01*
X194641498Y-76469500D01*
X194641495Y-76469500D01*
X194438505Y-76469500D01*
X194438502Y-76469500D01*
X194239421Y-76509100D01*
X194239409Y-76509103D01*
X194051881Y-76586779D01*
X194051868Y-76586786D01*
X193883095Y-76699557D01*
X193883091Y-76699560D01*
X193739560Y-76843091D01*
X193739557Y-76843095D01*
X193626786Y-77011868D01*
X193626779Y-77011881D01*
X193549103Y-77199409D01*
X193549100Y-77199421D01*
X193509500Y-77398500D01*
X193030499Y-77398500D01*
X193012353Y-77307276D01*
X192990898Y-77199414D01*
X192932305Y-77057957D01*
X192913220Y-77011881D01*
X192913213Y-77011868D01*
X192800442Y-76843095D01*
X192800439Y-76843091D01*
X192656908Y-76699560D01*
X192656904Y-76699557D01*
X192488131Y-76586786D01*
X192488118Y-76586779D01*
X192300590Y-76509103D01*
X192300578Y-76509100D01*
X192101498Y-76469500D01*
X192101495Y-76469500D01*
X191898505Y-76469500D01*
X191898502Y-76469500D01*
X191699421Y-76509100D01*
X191699409Y-76509103D01*
X191511881Y-76586779D01*
X191511868Y-76586786D01*
X191343095Y-76699557D01*
X191343091Y-76699560D01*
X191199560Y-76843091D01*
X191199557Y-76843095D01*
X191086786Y-77011868D01*
X191086779Y-77011881D01*
X191009103Y-77199409D01*
X191009100Y-77199421D01*
X190969500Y-77398500D01*
X187950499Y-77398500D01*
X187932353Y-77307276D01*
X187910898Y-77199414D01*
X187852305Y-77057957D01*
X187833220Y-77011881D01*
X187833213Y-77011868D01*
X187720442Y-76843095D01*
X187720439Y-76843091D01*
X187576908Y-76699560D01*
X187576904Y-76699557D01*
X187408131Y-76586786D01*
X187408118Y-76586779D01*
X187220590Y-76509103D01*
X187220578Y-76509100D01*
X187021498Y-76469500D01*
X187021495Y-76469500D01*
X186818505Y-76469500D01*
X186818502Y-76469500D01*
X186619421Y-76509100D01*
X186619409Y-76509103D01*
X186431881Y-76586779D01*
X186431868Y-76586786D01*
X186263095Y-76699557D01*
X186263091Y-76699560D01*
X186119560Y-76843091D01*
X186119557Y-76843095D01*
X186006786Y-77011868D01*
X186006779Y-77011881D01*
X185929103Y-77199409D01*
X185929100Y-77199421D01*
X185889500Y-77398500D01*
X185410499Y-77398500D01*
X185392353Y-77307276D01*
X185370898Y-77199414D01*
X185312305Y-77057957D01*
X185293220Y-77011881D01*
X185293213Y-77011868D01*
X185180442Y-76843095D01*
X185180439Y-76843091D01*
X185036908Y-76699560D01*
X185036904Y-76699557D01*
X184868131Y-76586786D01*
X184868118Y-76586779D01*
X184680590Y-76509103D01*
X184680578Y-76509100D01*
X184481498Y-76469500D01*
X184481495Y-76469500D01*
X184278505Y-76469500D01*
X184278502Y-76469500D01*
X184079421Y-76509100D01*
X184079409Y-76509103D01*
X183891881Y-76586779D01*
X183891868Y-76586786D01*
X183723095Y-76699557D01*
X183723091Y-76699560D01*
X183579560Y-76843091D01*
X183579557Y-76843095D01*
X183466786Y-77011868D01*
X183466779Y-77011881D01*
X183389103Y-77199409D01*
X183389100Y-77199421D01*
X183349500Y-77398500D01*
X176718050Y-77398500D01*
X176937938Y-77062602D01*
X176941134Y-77057957D01*
X176974401Y-77011868D01*
X177394774Y-76429471D01*
X177398432Y-76424656D01*
X177843573Y-75867686D01*
X177847782Y-75862697D01*
X178281229Y-75375794D01*
X178286121Y-75370608D01*
X178705548Y-74950955D01*
X178711220Y-74945628D01*
X178956160Y-74729611D01*
X179019456Y-74700034D01*
X179037174Y-74698617D01*
X203542392Y-74502576D01*
X203609586Y-74521724D01*
G37*
%TD.AperFunction*%
%TD*%
M02*
